<svg width="1440" height="449" viewBox="0 0 1440 449" fill="none" xmlns="http://www.w3.org/2000/svg">
<path d="M-5 439.091C54.9135 456.084 213.519 460.438 368.634 341.915C562.527 193.76 1066.37 203.318 1237.62 150.748C1374.61 108.691 1429.62 33.3922 1440 1" stroke="white"/>
<path d="M-5 269.408C42.1003 279.819 166.786 282.487 288.728 209.87C441.155 119.099 837.242 124.956 971.868 92.7467C1079.57 66.9796 1122.81 20.8459 1130.97 1" stroke="white"/>
<path d="M-5 136.747C29.7617 142.012 121.784 143.361 211.782 106.635C324.278 60.7285 616.605 63.6902 715.963 47.4006C795.449 34.369 827.364 11.037 833.386 1" stroke="white"/>
<path d="M-5 346.537C48.2696 359.939 189.287 363.374 327.201 269.89C499.593 153.036 947.561 160.575 1099.82 119.111C1221.63 85.9392 1270.53 26.5488 1279.76 1" stroke="white"/>
<path d="M-5 213.875C36.8801 222.132 147.747 224.248 256.174 166.656C391.707 94.6651 743.896 99.3097 863.6 73.7646C959.364 53.3286 997.815 16.7399 1005.07 1" stroke="white"/>
<path d="M-5 68.8733C21.1009 71.5059 90.1964 72.1806 157.771 53.8177C242.239 30.8642 461.734 32.3451 536.337 24.2003C596.02 17.6845 619.984 6.01851 624.505 1" stroke="white"/>
</svg>
