<?xml version="1.0" encoding="utf-8"?>
<!-- Generator: Adobe Illustrator 24.2.1, SVG Export Plug-In . SVG Version: 6.00 Build 0)  -->
<svg version="1.1" id="Layer_1" xmlns="http://www.w3.org/2000/svg" xmlns:xlink="http://www.w3.org/1999/xlink" x="0px" y="0px"
	 viewBox="0 0 223 232.1" style="enable-background:new 0 0 223 232.1;" xml:space="preserve">
<g>
	<g>
		<path d="M183.7,203.1c1.6-3.2,1.6-3.2,3.6-3.7c-1.4-0.8-2.8-1.8-4.3-2.5c-1.5-0.7-3.1-1-4.6-1.7c-11.6-5.8-22.2-13-32.4-21
			c-0.9-0.7-1.9-1.4-2.8-2.3c-2-1.9-4.4-3-6.9-4c-2.4-1-4.4-2.6-6.3-4.4c-3.5-3.3-7.1-6.5-10.7-9.9c-0.3,0.7-0.6,1.3-0.9,1.8
			c-1.6-0.3-3.2-0.5-4.8-1c-0.6-0.2-1.1-1-1.5-1.6c-0.4-0.6-0.9-1-1.6-1.2c-0.7-0.2-1.6-0.7-1.9-1.2c-0.6-1.2-1.5-1.6-2.6-2
			c-1.9-0.6-1.9-0.6-1.7-2.7c0.3-2.4,0.9-4.6,2.1-6.7c0.4-0.7,0.4-1.1-0.2-1.6c-2.8-2.8-5.6-5.6-8.4-8.4c-0.5-0.5-1-0.6-1.6-0.3
			c-1.8,0.9-3.7,1.7-5.1,3.4c-0.2,0.3-0.9,0.5-1.4,0.4c-2.2-0.3-3.8,0.5-5.2,2.3c-2.4,3-4.8,5.9-6,9.6c-0.2,0-0.2,0.1-0.3,0.1
			c-1.9,0.1-2.1,0-2.4,1.8c-0.5,2.9-1.7,4.8-4.8,5.2c-0.6,0.1-0.9,0.5-0.8,1.2c0.3,1.9-0.4,3.5-1.2,5.1c-2.3,4.7-4.6,9.5-8.2,13.4
			c-1.4,1.5-2,2.9-1.7,4.9c0.1,0.9-0.2,1.5-0.9,2c-1.3,0.9-2.5,1.8-3.7,2.8c-0.2,0.1-0.3,0.4-0.4,0.6c-1,2.8-2.9,4.8-5,6.8
			c-1.9,1.9-3.8,3.8-5.7,5.6c-0.3,0.3-0.9,0.5-1.4,0.6c-2.1,0.4-3.8,1.3-5.3,2.8c-1.5,1.6-3.3,2.3-5.5,2.2c-1.8,0-3.6-0.2-5.3,1
			c-0.8,0.5-2.3,0.1-3.8,0.1c1.1-1.3,1.9-2.4,2.8-3.5c0.1-0.2,0.6-0.2,0.9-0.1c0.6,0.1,1.3,0.4,2.2,0.7c-1-1.7-1.9-3.1-2.8-4.4
			c-0.4-0.6-0.4-1,0.1-1.6c1.7-2.2,3.9-3.7,6.4-4.9c3.5-1.6,6-4.3,8.3-7.3c0.5-0.6,0.6-1.7,0.7-2.5c0.3-1.9,0.4-3.8,1-5.6
			c2-6.2,4.1-12.3,6.3-18.4c0.8-2.4,2.3-4.3,4.1-6.1c0.6-0.6,0.7-1.7,0.8-2.6c0.4-2.3,0.6-4.7,1.2-6.9c1.2-4.2,3.9-7.3,7.7-9.4
			c1.7-0.9,3-2.1,3.9-3.9c1-2.1,1.4-4.1-0.2-6.1c0.9-1.4,1.7-2.8,2.6-4.2c0.7-1,0.6-2,0.7-3.1c0.1-0.7,0.3-1.6,0.7-2.1
			c1.5-2,3.2-3.9,4.7-5.9c0.6-0.7,0.7-2.7,0.2-3.5C69.4,92.4,64.2,85.2,59.1,78c-0.1,0-0.3-0.1-0.3,0c-1.3,1.1-2.6,0.7-4,0.2
			c-1.4-0.5-2.9-0.8-4.4-1.2c-1.5-0.3-2.8-0.9-3.4-2.4c-0.9-2.5-2.6-4.5-4.5-6.3c-0.6-0.5-0.8-1.1-0.8-1.9c0.1-1.4,0.1-2.9,0-4.3
			c-0.1-2.1,0.7-3.8,2.3-5c1.4-1.1,3-2.2,4.5-3.1c0.8-0.5,1.2-1.1,1.1-2.1c-0.2-2.3,0.8-4.2,2.3-5.8c0.3-0.3,0.7-0.7,1-0.8
			c1.4-0.2,1.7-1.2,1.8-2.3c0.1-0.4,0.2-0.8,0.3-1.2c0.3-2,1.3-3.2,3.2-4.2c1.9-0.9,3.5-2.6,5.1-4c2-1.7,3.9-3.4,5.9-5
			c0.4-0.3,1.2-0.4,1.6-0.2c2,0.9,3.7,0.7,5.6-0.4c2.4-1.5,5.1-1.6,7.7-0.4c1.4,0.7,2.7,0.6,4.1,0.1c1.2-0.4,2.4-0.7,3.6-1.1
			c1-0.3,1.9-0.3,2.8,0.3c0.2,0.2,0.5,0.2,0.8,0.2c1.7,0.2,3.5,0.4,5.2,0.6c0.9,0.1,1.5,0,1.8-0.9c0.2-0.4,0.4-0.8,0.6-1.3
			c0.6-1.3,1.2-2.4,3-2.6c1-0.1,2-0.9,2.9-1.6c2-1.6,4.2-2.3,6.8-2.2c1,0,2,0,3,0c0.6,0,1.2,0.1,1.7,0.4c1.7,0.9,3.2,2.1,4.9,2.9
			c2.2,0.9,2.9,2.7,3.2,4.7c0.5,2.7,1,5.5,1.4,8.2c0.3,2.1-0.4,3.8-1.5,5.5c-0.5,0.7-1.1,1.4-1.6,2.1c2.9,4.2,6,8.3,8.7,12.5
			c3,4.8,5.8,9.7,8.7,14.6c0.4,0.8,0.6,1.8,0.7,2.7c0.1,2.1,0.1,4.2,0,6.4c0,0.8,0.2,1.4,0.9,1.8c2.2,1.2,2.5,3.1,2.3,5.5
			c-0.2,3.4-0.1,6.8-1.2,10.2c-0.3,0.9-0.2,2.1-0.1,3.1c0.1,0.7,0.3,1.4,0.7,2c0.6,0.8,0.5,1.6,0.3,2.5c-0.7,2.7-1.5,5.3-3.2,7.7
			c-1.1,1.5-1.6,3.3-1.5,5.2c0.1,1.9,0,3.7,0,5.6c0,0.5,0.1,1.2,0.3,1.6c0.8,1.4,0.7,2.8,0.6,4.3c-0.3,4.4,0.5,8.7,1.2,12.9
			c0.2,1.3,0.9,2.2,2.2,2.5c0.3,0.1,0.7,0.3,0.9,0.5c0.6,1,1.3,0.9,2.3,0.6c2.2-0.9,4.6-0.8,6.8,0c4.9,1.9,9.8,3.1,15.1,2.7
			c0.1,0,0.3,0,0.4,0c1.7,1.1,3-0.1,4.1-1.1c2-1.6,4.2-0.9,6.3-0.9c0.4,0,0.8,0.6,1.2,0.9c1.6,1.5,0.9,1.4,2.8,0.2
			c0.4-0.3,0.8-0.6,1.3-1c1.2,1.5,1.8,3.3,2.1,5c0.4,2.2,0.5,4.4,0.8,6.6c0.4,3,0.9,6,1.3,9c0.6,4.3,0.4,8.5-0.7,12.7
			c-0.4,1.3-1.5,2.4-2.4,3.8c-0.6-0.8-1-1.3-1.4-1.7c0.3-0.4,0.5-0.8,0.8-1.3c-1.6,0-3-0.1-4.4,0c-1.6,0.1-2.8-0.7-3.6-1.9
			c-0.7-1.1-1.1-2.4-1.6-3.6c-0.8-2.2-1.5-4.6-2.5-6.7c-0.6-1.3-1.8-2.4-2.8-3.5c-0.2-0.2-0.8-0.4-1-0.3c-2.2,1-4.5,0.8-6.8,0.7
			c-1.4-0.1-2.5,0.1-3.8,0.8c-1.7,0.9-3.7,1.2-5.6,1.5c-2.8,0.5-5.7,0.8-8.5,1.2c-0.2,0-0.3,0.1-0.5,0.1c-2.1,0.6-2.2,1-0.7,2.5
			c4.8,4.8,10.6,8.1,16.1,12c3,2.2,6.1,4.2,9.3,6.1c3.5,2.2,7.6,3,11.4,4.5c3,1.2,6,1.5,9.2,1.4c6.2-0.1,12.3,0,18.5,0
			c0.8,0,1.2,0.2,1.4,1.1c0.3,1.2,0.7,2.3,1,3.4c0.2,0.6,0,1-0.4,1.4c-1.5,1.6-3.2,2.2-5.4,2.1c-3.1-0.2-6.2,0-9.3-0.1
			c-1.1,0-1.8,0.3-2.3,1.2c-0.4,0.8-1,1-1.9,1c-2.3-0.1-4.6-0.1-6.8,0C186.6,205.1,185,204.7,183.7,203.1z M76.8,96.3
			c1.7-2,3.3-3.9,4.9-5.8c0.3-0.3,0.4-1,0.2-1.4c-0.6-1.8-1.3-3.5-2.1-5.2c-0.3-0.6-0.2-1,0.3-1.5c1.1-1,2.1-2,3.1-3.1
			c0.3-0.4,0.5-0.9,0.6-1.4c0.3-1.4-0.2-2.5-1.5-3.3c-0.6-0.4-1.2-0.9-1.7-1.4c-0.4-0.4-0.7-1-0.7-1.5c-0.1-1.8,0-3.6-0.1-5.4
			c0-0.5-0.3-1-0.6-1.5c-0.8-1.5-1.8-2.8-2.4-4.3c-0.7-1.7-1-3.6-1.4-5.4c-0.8-3.2-0.8-3.2-4-3.1c-0.4,0-0.9,0.3-1.1,0.7
			c-1,1.9-2,3.8-3,5.7c-0.2,0.3-0.3,0.7-0.4,1.1c-0.4,3-0.9,5.9-1.2,8.9c-0.2,1.3-0.6,2.3-1.6,3.2c-1,0.8-1.8,1.8-2.7,2.7
			C66.1,82,71.1,89.4,76.8,96.3z M110.1,135.3c0.9-1.3,1.8-2.5,2.6-3.7c0.2-0.4,0.3-0.9,0.2-1.4c-0.3-3.2-2.8-5.6-6.4-6.3
			c-2.2-0.4-3.9,0.3-4.9,2.1C104.5,129.1,107.3,132.1,110.1,135.3z M189,159.1c0.6-0.2,1.4-0.3,1.6-0.6c0.9-1.3,0-3.6-1.6-4.5
			C189,155.7,189,157.3,189,159.1z M191.3,174.6c-0.8,1-0.3,2-0.4,2.9C192.1,177.6,192.1,177.1,191.3,174.6z"/>
	</g>
</g>
</svg>
