<?xml version="1.0" encoding="utf-8"?>
<!-- Generator: Adobe Illustrator 24.2.0, SVG Export Plug-In . SVG Version: 6.00 Build 0)  -->
<svg version="1.1" id="Layer_1" xmlns="http://www.w3.org/2000/svg" xmlns:xlink="http://www.w3.org/1999/xlink" x="0px" y="0px"
	 viewBox="0 0 648 296.3" style="enable-background:new 0 0 648 296.3;" xml:space="preserve">
<style type="text/css">
	.st0{fill:#00335B;}
	.st1{fill:#83CECF;}
</style>
<g>
	<g>
		<g>
			<polygon class="st0" points="599.6,4.6 594.7,0 589.1,0 582.8,2.5 594.6,28.8 601.4,23.9 604.1,15.8 			"/>
			<polygon class="st1" points="581.8,3.2 592.7,30.1 589.1,32.6 574,8 			"/>
			<path class="st1" d="M573.1,8.8c-0.3,0.2-4.3,3.2-4.3,3.2L580,37.2l7.2-3.9L573.1,8.8z"/>
			<polygon class="st1" points="567.3,12.9 560.8,17.2 575.5,39.6 578.7,37.9 			"/>
			<polygon class="st1" points="559.3,18.5 555.7,20.3 566.4,44.6 574.5,40.4 			"/>
			<polygon class="st1" points="553.7,21.9 548.4,25.6 561.6,48 565.1,45.5 			"/>
			<polygon class="st1" points="546.6,26.5 544,28.6 554.5,51.6 560.4,48.5 			"/>
			<polygon class="st1" points="542.6,30 536,33.9 550.7,54.1 553.6,52.3 			"/>
			<polygon class="st1" points="509.1,57.3 523.2,74.5 525.5,72.4 513.1,52.4 			"/>
			<polygon class="st1" points="514,51.8 516,49.9 530.7,68.2 526.1,71.7 			"/>
			<polygon class="st1" points="550,54.5 544.5,58.1 532.7,36.6 535,34.8 			"/>
			<polygon class="st1" points="531.5,37.7 526.5,41.2 542,59.9 543.6,58.8 			"/>
			<polygon class="st1" points="525.5,42.1 522.7,44.3 536.2,64.2 541.3,60.4 			"/>
			<polygon class="st1" points="521.8,45.2 516.8,49.4 531.8,67.3 535.3,64.7 			"/>
		</g>
		<g>
			<polygon class="st1" points="530.8,129.6 527.3,127.9 522.8,129.4 516.6,135.2 515.9,141.1 518.8,146.3 534.1,133.1 			"/>
			<polygon class="st0" points="534.6,133.8 519.6,147.6 521.2,150.3 538.1,139.1 			"/>
			<path class="st0" d="M538.4,139.9c0.1,0.2,1.8,3.3,1.8,3.3l-14.7,12.7l-3.4-4.6L538.4,139.9z"/>
			<polygon class="st0" points="540.9,144.3 543.8,148.9 527.8,158.8 526.2,156.8 			"/>
			<polygon class="st0" points="544.3,150.2 546.1,152.4 532.1,164.7 528.2,159.6 			"/>
			<polygon class="st0" points="546.9,154 549.2,158 534.1,168.3 532.6,165.7 			"/>
			<polygon class="st0" points="550,159.1 551.1,161.2 537.6,172.7 534.7,169 			"/>
			<polygon class="st0" points="551.6,162.4 554.6,166.8 539.2,175.4 537.9,173.4 			"/>
			<polygon class="st0" points="564.8,189.8 550.7,196.5 549.9,194.5 563.7,185.5 			"/>
			<polygon class="st0" points="563.3,184.8 562.6,183 547.8,190.3 549.7,193.9 			"/>
			<polygon class="st0" points="539.6,175.9 542,179.8 555.9,169.6 555,167.7 			"/>
			<polygon class="st0" points="556.4,170.6 558.5,174.3 543,181.7 542.4,180.5 			"/>
			<polygon class="st0" points="558.9,175.2 559.9,177.4 545.5,186.1 543.3,182.2 			"/>
			<polygon class="st0" points="560.3,178.3 562.2,182.4 547.4,189.4 545.9,186.7 			"/>
		</g>
		<g>
			<polygon class="st0" points="353.2,161.7 349.8,158.5 345.8,158.5 341.4,160.3 349.7,178.7 354.5,175.3 356.4,169.6 			"/>
			<polygon class="st0" points="340.7,160.7 348.4,179.6 345.8,181.4 335.2,164.1 			"/>
			<path class="st0" d="M334.6,164.6c-0.2,0.1-3,2.2-3,2.2l8,17.7l5-2.7L334.6,164.6z"/>
			<polygon class="st0" points="330.5,167.6 325.9,170.6 336.3,186.3 338.5,185.1 			"/>
			<polygon class="st0" points="324.9,171.4 322.4,172.7 329.9,189.8 335.6,186.8 			"/>
			<polygon class="st0" points="321,173.9 317.2,176.5 326.5,192.2 329,190.4 			"/>
			<polygon class="st0" points="316,177.1 314.2,178.6 321.6,194.7 325.7,192.5 			"/>
			<polygon class="st0" points="313.2,179.5 308.6,182.3 318.9,196.5 320.9,195.2 			"/>
			<polygon class="st0" points="289.7,198.7 299.6,210.8 301.2,209.3 292.4,195.3 			"/>
			<polygon class="st0" points="293.1,194.9 294.5,193.5 304.8,206.4 301.6,208.8 			"/>
			<polygon class="st0" points="318.4,196.7 314.5,199.3 306.2,184.2 307.9,182.9 			"/>
			<polygon class="st0" points="305.4,184.9 301.9,187.4 312.8,200.6 313.9,199.8 			"/>
			<polygon class="st0" points="301.2,188 299.2,189.6 308.7,203.5 312.3,200.9 			"/>
			<polygon class="st0" points="298.6,190.2 295,193.2 305.6,205.7 308,203.9 			"/>
		</g>
		<path class="st1" d="M183.2,247.4c0,0,6-7.1,13.3-6.1c7.3,1,9,4,17.9,3c9-1,10.3-5.5,18.6-3.1l7,2.8c0,0-11.7,0.8-17.3,3
			c-5.6,2.2-10.7,2.8-17.4,1.7C198.7,247.4,193,242.4,183.2,247.4z"/>
		<path class="st1" d="M424.2,281.3c0,0,5-3.9,11-3.2s7.3,2.5,14.7,2.1s8.6-2.9,15.4-1.3l5.7,1.7c0,0-9.7,0.2-14.3,1.3
			c-4.6,1.1-8.9,1.4-14.3,0.5C436.9,281.7,432.3,278.7,424.2,281.3z"/>
		<path class="st1" d="M241.2,291.3c0,0,5.6-6.4,11-4.6c5.5,1.8,6.3,5,13.3,4.9c7,0,8.6-4.4,14.7-1.1l5,3.5c0,0-9.1-0.5-13.7,1.1
			c-4.6,1.5-8.6,1.6-13.5-0.2C253.1,293,249.4,287.4,241.2,291.3z"/>
		<path class="st1" d="M545.4,280.4c1.7,0.9,3.6,1.6,6.9,1.6c0.4,0,0.7,0,1.1,0l8.5-64.3l3-17.8l0-8.7l-13.2,6.5l2.9,18.5
			L545.4,280.4z"/>
		<path class="st1" d="M311.6,246.2l8.5,1.2c0.8,0.1,1.3-0.7,1-1.4l-3.8-6.5c-0.6-1.1,0.2-2.5,1.5-2.5l26.4,1.1
			c9.4,0.4,18.8,2.3,27.6,5.6l12.9,4.9c0.7,0.3,0.4,1.3-0.4,1.2l-21.6-4.6c-5.8-1.2-11.7-1.9-17.6-1.9l-22.5-2.1
			c-0.6,0-0.9,0.6-0.6,1.1l7.3,10.8c1.1,1.6-0.6,3.7-2.4,3l-16.9-8.1C310.3,247.4,310.6,246.1,311.6,246.2z"/>
		<path class="st1" d="M90.2,237.7l-19.9,3.5c-5.4,0.9-10.9,1.6-16.5,1.9l-14.2,0.9c-6.4,0.4-12.8,0.4-19.2,0l-19.4-1.2
			c-1-0.1-1.3,0.7-0.4,0.9l11.1,1.9c13.6,2.3,28.1,2.8,42.1,1.3l0,0c7.9-0.8,15.4-2.3,22.5-4.2l14.5-4
			C91.7,238.2,91.1,237.5,90.2,237.7z"/>
		<path class="st1" d="M455.3,214.5l-12.3,0.9c-3.3,0.3-6.6,0.2-10-0.2l-8.4-0.9c-3.8-0.4-7.5-1.2-11.1-2.4l-11-3.6
			c-0.6-0.2-0.9,0.5-0.4,0.8l6.1,3.2c7.4,4,14.6,6.2,23,6.5c0,0,7.8,0.5,15-1.4l9.2-2.2C456.1,215.3,455.9,214.5,455.3,214.5z"/>
		<path class="st1" d="M527.2,284.9c0,0,5.6-6.4,11-4.6c5.5,1.8,6.3,5,13.3,4.9c7,0,8.6-4.3,14.7-1.1l5,3.5c0,0-9.1-0.5-13.7,1.1
			c-4.6,1.5-8.6,1.6-13.5-0.2C539,286.6,535.4,281,527.2,284.9z"/>
		<path class="st1" d="M647.6,274.2l-11.8-1.5c-11.3-1.4-22.1-5.2-31.8-11.1l-18.3-11.2c-4.1-2.5-8.3-4.8-12.6-6.8l-11.3-5.3
			l-1.4,11.8c9.6,4.2,18.6,9.6,26.9,16l3.9,3c8,6.2,18,9.2,28,8.3l28.3-2.4C648.1,274.9,648.1,274.3,647.6,274.2z"/>
	</g>
	<g>
		<path class="st1" d="M526.3,237.6l21.1,7.5l2-12.6l-6.4-3c-21-9.9-44.4-13.7-68.3-11.2l-6,20.5c7.1,0.6,13.5,1.5,19.7,2.8
			l39.5,8.5c1.8,0.4,2.8-1.9,1.3-3l-5.8-4.1C520.5,240.9,522.9,236.4,526.3,237.6z"/>
	</g>
	<g>
		<path class="st1" d="M193.4,202.3l-28.5,9.5l-20.8,8.1c-8.5,3.3-17.8,3.4-26.4,0.2c-6.5-2.4-13.6-3-20.4-1.5l-0.6,0.1
			c-11.2,2.3-22.2,5.6-32.8,9.8c-16.8,6.7-35.1,9.3-53.1,7.5c-0.3,0-0.3,0.4-0.1,0.4l3.8,0.9c15.6,3.6,31.8,3.8,47.5,0.7l37.5-7.5
			c4.2-0.8,7.4,3.5,5.4,7.3c-1.9,3.5-5.3,6-9.2,6.6l-1,0.2c-1.7,0.3-1.4,2.7,0.2,2.7c5.8-0.1,11.5-1,17-2.7l84.4-25.7L193.4,202.3z"
			/>
	</g>
	<g>
		<path class="st1" d="M282.5,210.6c-3.5-0.8-6.9-1.9-10.2-3.2l-28-10.9c-10-3.9-21.1-4.2-31.4-0.8l-1.1,0.3l3.9,16.9l8.3-2.5
			c3.7-1.1,6.6,3.3,4,6.2l-4.5,5.2c-0.8,0.9,0,2.3,1.2,2.2l24.9-3.6c9.7-1.4,19.6,0.1,28.5,4.1L282.5,210.6z"/>
	</g>
	<path class="st1" d="M455.9,220.8l-11.3,1.5c-13.6,1.7-27.4-0.4-39.8-6l-11.5-5.2c-10.3-4.7-21.8-6.4-33-4.9l-46.9,6.2
		c-4.3,0.6-8.6,0.8-12.9,0.7l-10.3,14.8l-1.1,2.9l16,9.2c2.4,1.4,4.9-1.8,3-3.8c-1.4-1.5-0.5-4,1.6-4.1l13-0.7
		c8.1-0.5,16.2,0.2,24.1,1.8l45.4,9.5c1,0.2,1.8-0.9,1.3-1.8l-6.7-12.7c-1.3-2.5,1.3-5.1,3.8-3.9l14.3,7.1c8.7,4.4,18.3,6.7,28,6.8
		l17-0.1L455.9,220.8z"/>
	<path class="st0" d="M508.2,59l-5.3,11.2L496,95.1l-53.7,182.2c0.4,0,0.8,0.1,1.2,0.3c1.7,0.8,4.5,1.1,6.8,0.9l1.3-0.2
		c0.7-0.1,1.2-0.4,1.6-0.7c0.8-0.7,1.2-1.1,1.5-1.2l51.8-178.9l14.8-22.1L508.2,59z"/>
	<path class="st0" d="M289,199.9l-3.7,7.9l-4.8,17.4l-19.6,62.6c1.4,0.6,3.1,1,5.5,0.9c1,0,2-0.1,2.8-0.3l18.7-61.6l10.4-15.5
		L289,199.9z"/>
</g>
</svg>
