<?xml version="1.0" encoding="iso-8859-1"?>
<!-- Generator: Adobe Illustrator 19.0.0, SVG Export Plug-In . SVG Version: 6.00 Build 0)  -->
<svg version="1.1" id="Capa_1" xmlns="http://www.w3.org/2000/svg" xmlns:xlink="http://www.w3.org/1999/xlink" x="0px" y="0px"
	 viewBox="0 0 512 512" style="enable-background:new 0 0 512 512;" xml:space="preserve">
<path style="fill:#C8C6CD;" d="M44.922,226.05C20.152,226.05,0,205.898,0,181.128s20.152-44.922,44.922-44.922
	s44.922,20.152,44.922,44.922C89.844,205.898,69.692,226.05,44.922,226.05z M44.922,166.206C36.694,166.206,30,172.9,30,181.128
	c0,8.228,6.694,14.922,14.922,14.922s14.922-6.694,14.922-14.922S53.15,166.206,44.922,166.206z"/>
<polygon style="fill:#00459F;" points="512,120.36 512,256.65 295.65,256.65 175.87,150.36 175.87,120.36 "/>
<path style="fill:#00ACEA;" d="M311.5,256v0.65c-0.35,74.49-61.06,134.99-135.63,134.99S40.58,331.14,40.23,256.65V256
	c0-74.79,60.85-135.64,135.64-135.64S311.5,181.21,311.5,256z"/>
<rect x="420.79" y="120.36" style="fill:#FFF4CB;" width="30" height="136.29"/>
<path style="fill:#D1FEFB;" d="M250.91,256c0,0.22,0,0.44-0.01,0.65c-0.34,41.08-33.88,74.39-75.03,74.39
	c-41.16,0-74.69-33.31-75.03-74.39c-0.01-0.21-0.01-0.43-0.01-0.65c0-41.38,33.66-75.04,75.04-75.04
	C217.24,180.96,250.91,214.62,250.91,256z"/>
<path style="fill:#0082D1;" d="M311.5,256.65c-0.35,74.49-61.06,134.99-135.63,134.99S40.58,331.14,40.23,256.65H311.5z"/>
<path style="fill:#77FEF6;" d="M250.9,256.65c-0.34,41.08-33.88,74.39-75.03,74.39c-41.16,0-74.69-33.31-75.03-74.39L250.9,256.65
	L250.9,256.65z"/>
<g>
</g>
<g>
</g>
<g>
</g>
<g>
</g>
<g>
</g>
<g>
</g>
<g>
</g>
<g>
</g>
<g>
</g>
<g>
</g>
<g>
</g>
<g>
</g>
<g>
</g>
<g>
</g>
<g>
</g>
</svg>
