<?xml version="1.0" encoding="iso-8859-1"?>
<!-- Generator: Adobe Illustrator 19.0.0, SVG Export Plug-In . SVG Version: 6.00 Build 0)  -->
<svg version="1.1" id="Capa_1" xmlns="http://www.w3.org/2000/svg" xmlns:xlink="http://www.w3.org/1999/xlink" x="0px" y="0px"
	 viewBox="0 0 512 512" style="enable-background:new 0 0 512 512;" xml:space="preserve">
<path style="fill:#006EF5;" d="M512,186.78v129.79c0,33.65-28.32,64.16-79.74,85.91C384.93,422.5,322.34,433.53,256,433.53
	S127.07,422.5,79.74,402.48C28.32,380.73,0,350.22,0,316.57V186.78H512z"/>
<path style="fill:#004EB2;" d="M512,186.78v129.79c0,33.65-28.32,64.16-79.74,85.91C384.93,422.5,322.34,433.53,256,433.53V186.78
	H512z"/>
<path style="fill:#00459F;" d="M512,186.78c0,59.81-114.62,108.3-256,108.3S0,246.59,0,186.78C0,126.96,114.62,78.47,256,78.47
	S512,126.96,512,186.78z"/>
<path style="fill:#002D6B;" d="M512,186.78c0,59.81-114.62,108.3-256,108.3V78.47C397.38,78.47,512,126.96,512,186.78z"/>
<g>
</g>
<g>
</g>
<g>
</g>
<g>
</g>
<g>
</g>
<g>
</g>
<g>
</g>
<g>
</g>
<g>
</g>
<g>
</g>
<g>
</g>
<g>
</g>
<g>
</g>
<g>
</g>
<g>
</g>
</svg>
