<?xml version="1.0" encoding="iso-8859-1"?>
<!-- Generator: Adobe Illustrator 19.0.0, SVG Export Plug-In . SVG Version: 6.00 Build 0)  -->
<svg version="1.1" id="Capa_1" xmlns="http://www.w3.org/2000/svg" xmlns:xlink="http://www.w3.org/1999/xlink" x="0px" y="0px"
	 viewBox="0 0 512 512" style="enable-background:new 0 0 512 512;" xml:space="preserve">
<rect x="188.967" y="421.93" style="fill:#00459F;" width="224.175" height="90.07"/>
<rect x="298.053" y="421.93" style="fill:#002D6B;" width="115.09" height="90.07"/>
<path style="fill:#FF0536;" d="M128.335,244.45c-15.285-16.281-40.875-17.087-57.156-1.802l0,0
	c-16.281,15.285-17.087,40.875-1.802,57.156l89.812,96.366l3.658-114.96L128.335,244.45z"/>
<path style="fill:#FF3B62;" d="M453.579,104.382v264.477c0,36.408-29.623,66.032-66.032,66.032h-178.97
	c-36.418,0-66.042-29.623-66.042-66.032V96.545c0-10.718,4.373-20.426,11.419-27.441c7.056-7.025,16.783-11.369,27.501-11.369
	c21.437,0,38.81,17.374,38.81,38.81V38.81c0-10.718,4.343-20.416,11.369-27.441C238.661,4.343,248.359,0,259.077,0
	c21.437,0,38.82,17.374,38.82,38.81c0-1.191,0.05-2.372,0.16-3.533C299.839,15.492,316.462,0,336.708,0
	c21.427,0,38.81,17.374,38.81,38.81v65.571c0-21.557,17.474-39.03,39.03-39.03C436.106,65.351,453.579,82.825,453.579,104.382z"/>
<rect x="209.664" y="298.843" style="fill:#F0E7DF;" width="182.813" height="79.432"/>
<path style="fill:#D80322;" d="M453.579,104.382v264.477c0,36.408-29.623,66.032-66.032,66.032h-89.49V35.278
	C299.839,15.492,316.462,0,336.708,0c21.427,0,38.81,17.374,38.81,38.81v65.571c0-21.557,17.474-39.03,39.03-39.03
	C436.106,65.351,453.579,82.825,453.579,104.382z"/>
<rect x="298.053" y="298.843" style="fill:#DFCDBD;" width="94.414" height="79.432"/>
<g>
</g>
<g>
</g>
<g>
</g>
<g>
</g>
<g>
</g>
<g>
</g>
<g>
</g>
<g>
</g>
<g>
</g>
<g>
</g>
<g>
</g>
<g>
</g>
<g>
</g>
<g>
</g>
<g>
</g>
</svg>
