<?xml version="1.0" encoding="iso-8859-1"?>
<!-- Generator: Adobe Illustrator 19.0.0, SVG Export Plug-In . SVG Version: 6.00 Build 0)  -->
<svg version="1.1" id="Capa_1" xmlns="http://www.w3.org/2000/svg" xmlns:xlink="http://www.w3.org/1999/xlink" x="0px" y="0px"
	 viewBox="0 0 512 512" style="enable-background:new 0 0 512 512;" xml:space="preserve">
<path style="fill:#C8C6CD;" d="M256,0c-31.06,0-56.32,25.27-56.32,56.32c0,31.06,25.26,56.32,56.32,56.32s56.32-25.26,56.32-56.32
	C312.32,25.27,287.06,0,256,0z M256,82.64c-14.51,0-26.32-11.81-26.32-26.32S241.49,30,256,30c14.51,0,26.32,11.81,26.32,26.32
	S270.51,82.64,256,82.64z"/>
<g>
	<path style="fill:#AEADB3;" d="M312.32,56.32c0,31.06-25.26,56.32-56.32,56.32v-30c14.51,0,26.32-11.81,26.32-26.32
		S270.51,30,256,30V0C287.06,0,312.32,25.27,312.32,56.32z"/>
	<polygon style="fill:#AEADB3;" points="154.568,112.978 112.323,64.238 39.401,127.441 87.868,183.36 99.203,173.536 
		99.204,173.536 99.205,173.535 110.538,163.712 109.135,162.093 143.232,122.803 	"/>
</g>
<polygon style="fill:#8B8992;" points="472.599,127.441 399.677,64.238 357.432,112.978 368.768,122.803 402.865,162.093 
	401.462,163.712 412.795,173.535 412.796,173.536 412.796,173.536 424.132,183.36 "/>
<path style="fill:#FFC473;" d="M470.89,297.11c0,57.4-22.35,111.36-62.94,151.95S313.4,512,256,512s-111.36-22.35-151.95-62.94
	s-62.94-94.55-62.94-151.95s22.35-111.36,62.94-151.95S198.6,82.22,256,82.22s111.36,22.35,151.95,62.94
	S470.89,239.71,470.89,297.11z"/>
<path style="fill:#FFA522;" d="M470.89,297.11c0,57.4-22.35,111.36-62.94,151.95S313.4,512,256,512V82.22
	c57.4,0,111.36,22.35,151.95,62.94S470.89,239.71,470.89,297.11z"/>
<path style="fill:#D1FEFB;" d="M405.19,297.11c0,82.4-66.79,149.19-149.19,149.19s-149.19-66.79-149.19-149.19
	S173.6,147.92,256,147.92S405.19,214.71,405.19,297.11z"/>
<path style="fill:#77FEF6;" d="M405.19,297.11c0,82.4-66.79,149.19-149.19,149.19V147.92C338.4,147.92,405.19,214.71,405.19,297.11z
	"/>
<g>
	<rect x="241" y="154.33" style="fill:#00459F;" width="30" height="45"/>
	<rect x="241" y="394.88" style="fill:#00459F;" width="30" height="45"/>
	<rect x="113.22" y="282.11" style="fill:#00459F;" width="45" height="30"/>
</g>
<rect x="353.77" y="282.11" style="fill:#002D6B;" width="45" height="30"/>
<rect x="148.451" y="197.055" transform="matrix(-0.7071 -0.7071 0.7071 -0.7071 141.886 482.8818)" style="fill:#00459F;" width="45" height="30"/>
<rect x="318.541" y="367.152" transform="matrix(-0.7071 -0.7071 0.7071 -0.7071 311.9715 893.5264)" style="fill:#002D6B;" width="45" height="30"/>
<rect x="155.954" y="359.654" transform="matrix(-0.7071 -0.7071 0.7071 -0.7071 21.612 773.2601)" style="fill:#00459F;" width="30" height="45"/>
<rect x="326.049" y="189.554" transform="matrix(-0.7071 -0.7071 0.7071 -0.7071 432.2619 603.1569)" style="fill:#002D6B;" width="30" height="45"/>
<rect x="241" y="225" style="fill:#BD9B7B;" width="30" height="79.92"/>
<rect x="256" y="154.33" style="fill:#002D6B;" width="15" height="45"/>
<rect x="256" y="225" style="fill:#A17852;" width="15" height="79.92"/>
<rect x="256" y="394.88" style="fill:#002D6B;" width="15" height="45"/>
<path style="fill:#006EF5;" d="M256,132.92c-90.54,0-164.19,73.65-164.19,164.19S165.46,461.3,256,461.3s164.19-73.65,164.19-164.19
	S346.54,132.92,256,132.92z M256,431.3c-73.99,0-134.19-60.2-134.19-134.19c0-74,60.2-134.19,134.19-134.19
	s134.19,60.19,134.19,134.19C390.19,371.1,329.99,431.3,256,431.3z"/>
<path style="fill:#004EB2;" d="M420.19,297.11c0,90.54-73.65,164.19-164.19,164.19v-30c73.99,0,134.19-60.2,134.19-134.19
	c0-74-60.2-134.19-134.19-134.19v-30C346.54,132.92,420.19,206.57,420.19,297.11z"/>
<g>
</g>
<g>
</g>
<g>
</g>
<g>
</g>
<g>
</g>
<g>
</g>
<g>
</g>
<g>
</g>
<g>
</g>
<g>
</g>
<g>
</g>
<g>
</g>
<g>
</g>
<g>
</g>
<g>
</g>
</svg>
