<?xml version="1.0" encoding="iso-8859-1"?>
<!-- Generator: Adobe Illustrator 19.0.0, SVG Export Plug-In . SVG Version: 6.00 Build 0)  -->
<svg version="1.1" id="Capa_1" xmlns="http://www.w3.org/2000/svg" xmlns:xlink="http://www.w3.org/1999/xlink" x="0px" y="0px"
	 viewBox="0 0 512 512" style="enable-background:new 0 0 512 512;" xml:space="preserve">
<polygon style="fill:#00ACEA;" points="512,79.545 512,432.455 423.39,382.435 423.39,140.625 88.61,140.625 88.61,382.435 
	0,432.455 0,79.545 "/>
<polygon style="fill:#0082D1;" points="512,79.545 512,432.455 423.39,382.435 423.39,140.625 256,140.625 256,79.545 "/>
<path style="fill:#AEADB3;" d="M60.79,136.195v261.88h390v-261.88H60.79z M275.14,166.195h67.15l2.39,2.98l-35.96,44.83
	l-35.95-44.84L275.14,166.195z M363.9,193.145l35.96,44.83l-35.96,44.83l-35.95-44.83L363.9,193.145z M256,196.215l33.49,41.77
	L256,279.745l-2.46,3.07l-35.95-44.84l35.95-44.83L256,196.215z M164.79,166.195h67.14l2.38,2.97l-35.95,44.83l-35.95-44.83
	L164.79,166.195z M179.13,237.975l-35.95,44.83l-35.96-44.83l35.96-44.83L179.13,237.975z M89.05,166.195h32.52l2.38,2.97
	l-34.9,43.52V166.195z M89.05,263.275l34.9,43.51l-34.9,43.51V263.275z M113.25,368.075l29.93-37.32l29.92,37.32H113.25z
	 M162.4,306.785l35.96-44.84l35.96,44.84l-35.96,44.83L162.4,306.785z M223.62,368.075l29.92-37.31l2.46,3.07l27.47,34.24H223.62z
	 M272.77,306.785l35.95-44.83l35.96,44.82l-35.95,44.84L272.77,306.785z M333.99,368.075l29.92-37.32l29.92,37.32H333.99z
	 M420.79,353.755l-37.66-46.97l35.96-44.84l1.7,2.13V353.755z M420.79,211.865l-1.7,2.13l-35.95-44.83l2.38-2.97h35.27
	L420.79,211.865L420.79,211.865z"/>
<path style="fill:#8B8992;" d="M256,136.195v60.02l33.49,41.77L256,279.745v54.09l27.47,34.24H256v30h194.79v-261.88L256,136.195
	L256,136.195z M272.77,169.165l2.37-2.97h67.15l2.39,2.98l-35.96,44.83L272.77,169.165z M363.9,193.145l35.96,44.83l-35.96,44.83
	l-35.95-44.83L363.9,193.145z M272.77,306.785l35.95-44.83l35.96,44.82l-35.95,44.84L272.77,306.785z M333.99,368.075l29.92-37.32
	l29.92,37.32H333.99z M420.79,353.755l-37.66-46.97l35.96-44.84l1.7,2.13V353.755z M420.79,211.865l-1.7,2.13l-35.95-44.83
	l2.38-2.97h35.27L420.79,211.865L420.79,211.865z"/>
<g>
</g>
<g>
</g>
<g>
</g>
<g>
</g>
<g>
</g>
<g>
</g>
<g>
</g>
<g>
</g>
<g>
</g>
<g>
</g>
<g>
</g>
<g>
</g>
<g>
</g>
<g>
</g>
<g>
</g>
</svg>
