<?xml version="1.0" encoding="iso-8859-1"?>
<!-- Generator: Adobe Illustrator 19.0.0, SVG Export Plug-In . SVG Version: 6.00 Build 0)  -->
<svg version="1.1" id="Capa_1" xmlns="http://www.w3.org/2000/svg" xmlns:xlink="http://www.w3.org/1999/xlink" x="0px" y="0px"
	 viewBox="0 0 512 512" style="enable-background:new 0 0 512 512;" xml:space="preserve">
<polygon style="fill:#8B8992;" points="512,237.892 512,406.844 186.52,406.844 147.758,322.368 0,0.315 102.364,0.315 
	211.37,237.892 "/>
<polygon style="fill:#57555C;" points="512,322.368 512,406.844 186.52,406.844 147.758,322.368 "/>
<rect x="431.679" y="237.897" style="fill:#FF3B62;" width="80.321" height="168.952"/>
<rect x="431.679" y="322.363" style="fill:#D80322;" width="80.321" height="84.476"/>
<path style="fill:#006EF5;" d="M354.233,400.137v58.675c0,15.212-12.803,29.004-36.049,38.837
	c-21.397,9.051-49.692,14.037-79.682,14.037s-58.285-4.986-79.682-14.037c-23.245-9.833-36.048-23.625-36.048-38.837v-58.675
	H354.233z"/>
<path style="fill:#004EB2;" d="M354.233,400.137v58.675c0,15.212-12.803,29.004-36.049,38.837
	c-21.397,9.051-49.692,14.037-79.682,14.037V400.137H354.233z"/>
<path style="fill:#00459F;" d="M354.233,400.137c0,27.039-51.816,48.96-115.731,48.96s-115.731-21.921-115.731-48.96
	c0-27.043,51.816-48.964,115.731-48.964S354.233,373.094,354.233,400.137z"/>
<path style="fill:#002D6B;" d="M354.233,400.137c0,27.039-51.816,48.96-115.731,48.96v-97.924
	C302.417,351.173,354.233,373.094,354.233,400.137z"/>
<g>
</g>
<g>
</g>
<g>
</g>
<g>
</g>
<g>
</g>
<g>
</g>
<g>
</g>
<g>
</g>
<g>
</g>
<g>
</g>
<g>
</g>
<g>
</g>
<g>
</g>
<g>
</g>
<g>
</g>
</svg>
