<?xml version="1.0" encoding="iso-8859-1"?>
<!-- Generator: Adobe Illustrator 19.0.0, SVG Export Plug-In . SVG Version: 6.00 Build 0)  -->
<svg version="1.1" id="Capa_1" xmlns="http://www.w3.org/2000/svg" xmlns:xlink="http://www.w3.org/1999/xlink" x="0px" y="0px"
	 viewBox="0 0 512 512" style="enable-background:new 0 0 512 512;" xml:space="preserve">
<rect y="103.4" style="fill:#00459F;" width="512" height="305.2"/>
<rect x="256" y="103.4" style="fill:#002D6B;" width="256" height="305.2"/>
<g>
	<rect x="240.75" y="204.75" style="fill:#D1FEFB;" width="30.5" height="30.5"/>
	<rect x="240.75" y="276.75" style="fill:#D1FEFB;" width="30.5" height="30.5"/>
	<path style="fill:#D1FEFB;" d="M119.798,326.073h-85.08V185.927h85.08V326.073z M64.718,296.073h25.08v-80.146h-25.08V296.073z"/>
	<path style="fill:#D1FEFB;" d="M217.311,326.073h-85.08V185.927h85.08V326.073z M162.231,296.073h25.08v-80.146h-25.08V296.073z"/>
</g>
<g>
	<path style="fill:#77FEF6;" d="M379.769,326.073h-85.08V185.927h85.08L379.769,326.073L379.769,326.073z M324.689,296.073h25.08
		v-80.146h-25.08V296.073z"/>
	<path style="fill:#77FEF6;" d="M477.282,326.073h-85.08V185.927h85.08L477.282,326.073L477.282,326.073z M422.202,296.073h25.08
		v-80.146h-25.08V296.073z"/>
	<rect x="256" y="204.75" style="fill:#77FEF6;" width="15.25" height="30.5"/>
	<rect x="256" y="276.75" style="fill:#77FEF6;" width="15.25" height="30.5"/>
</g>
<g>
</g>
<g>
</g>
<g>
</g>
<g>
</g>
<g>
</g>
<g>
</g>
<g>
</g>
<g>
</g>
<g>
</g>
<g>
</g>
<g>
</g>
<g>
</g>
<g>
</g>
<g>
</g>
<g>
</g>
</svg>
