<?xml version="1.0" encoding="iso-8859-1"?>
<!-- Generator: Adobe Illustrator 19.0.0, SVG Export Plug-In . SVG Version: 6.00 Build 0)  -->
<svg version="1.1" id="Capa_1" xmlns="http://www.w3.org/2000/svg" xmlns:xlink="http://www.w3.org/1999/xlink" x="0px" y="0px"
	 viewBox="0 0 512 512" style="enable-background:new 0 0 512 512;" xml:space="preserve">
<rect y="79.76" style="fill:#D1FEFB;" width="512" height="352.48"/>
<rect y="256" style="fill:#77FEF6;" width="512" height="176.24"/>
<g>
	<polygon style="fill:#FF3B62;" points="96.54,179.44 96.54,331.66 0,331.66 0,301.66 66.54,301.66 66.54,209.44 0,209.44 0,179.44 
			"/>
	<polygon style="fill:#FF3B62;" points="447.62,301.66 512,301.66 512,331.66 417.62,331.66 417.62,179.44 512,179.44 512,209.44 
		447.62,209.44 	"/>
</g>
<rect x="241" y="301.98" style="fill:#002D6B;" width="30" height="130.26"/>
<rect x="241" y="79.76" style="fill:#00459F;" width="30" height="130.26"/>
<path style="fill:#FF3B62;" d="M256,195.02c-33.63,0-60.99,27.35-60.99,60.98s27.36,60.98,60.99,60.98s60.99-27.35,60.99-60.98
	S289.63,195.02,256,195.02z M256,286.98c-17.08,0-30.99-13.9-30.99-30.98s13.91-30.98,30.99-30.98s30.99,13.9,30.99,30.98
	C286.99,273.08,273.08,286.98,256,286.98z"/>
<g>
	<polygon style="fill:#D80322;" points="66.54,256 96.54,256 96.54,331.66 0,331.66 0,301.66 66.54,301.66 	"/>
	<path style="fill:#D80322;" d="M316.99,256c0,33.63-27.36,60.98-60.99,60.98s-60.99-27.35-60.99-60.98h30
		c0,17.08,13.91,30.98,30.99,30.98s30.99-13.9,30.99-30.98H316.99z"/>
	<polygon style="fill:#D80322;" points="512,301.66 512,331.66 417.62,331.66 417.62,256 447.62,256 447.62,301.66 	"/>
</g>
<g>
</g>
<g>
</g>
<g>
</g>
<g>
</g>
<g>
</g>
<g>
</g>
<g>
</g>
<g>
</g>
<g>
</g>
<g>
</g>
<g>
</g>
<g>
</g>
<g>
</g>
<g>
</g>
<g>
</g>
</svg>
