<?xml version="1.0" encoding="iso-8859-1"?>
<!-- Generator: Adobe Illustrator 19.0.0, SVG Export Plug-In . SVG Version: 6.00 Build 0)  -->
<svg version="1.1" id="Capa_1" xmlns="http://www.w3.org/2000/svg" xmlns:xlink="http://www.w3.org/1999/xlink" x="0px" y="0px"
	 viewBox="0 0 512 512" style="enable-background:new 0 0 512 512;" xml:space="preserve">
<path style="fill:#FFC473;" d="M461.75,256.293v0.04c0,19.44,15.81,35.25,35.25,35.25h15v109.49H0v-109.49h15
	c19.44,0,35.25-15.81,35.25-35.25v-0.04c-0.02-19.42-15.82-35.21-35.25-35.21H0v-109.49h512v109.49h-15
	C477.57,221.083,461.77,236.873,461.75,256.293z"/>
<path style="fill:#FFA522;" d="M512,291.583v109.49H0v-109.49h15c19.44,0,35.25-15.81,35.25-35.25v-0.04h411.5v0.04
	c0,19.44,15.81,35.25,35.25,35.25H512z"/>
<path style="fill:#FFAA20;" d="M151.65,111.593v289.48H0v-109.49h15c19.44,0,35.25-15.81,35.25-35.25v-0.04
	c-0.02-19.42-15.82-35.21-35.25-35.21H0v-109.49C0,111.593,151.65,111.593,151.65,111.593z"/>
<g>
	<polygon style="fill:#E67500;" points="376.66,298.263 376.66,328.263 332.77,328.263 311.51,289.353 294.42,258.063 
		293.46,256.293 263.5,201.453 289.83,187.073 311.51,226.773 327.64,256.293 328.6,258.063 350.56,298.263 	"/>
	<polygon style="fill:#E67500;" points="359.52,201.453 329.57,256.293 328.6,258.063 311.51,289.353 290.26,328.263 
		246.36,328.263 246.36,298.263 272.46,298.263 294.42,258.063 295.39,256.293 311.51,226.773 333.2,187.073 	"/>
</g>
<path style="fill:#FF8900;" d="M50.25,256.293h101.4v144.78H0v-109.49h15c19.44,0,35.25-15.81,35.25-35.25V256.293z"/>
<polygon style="fill:#C06100;" points="376.66,298.263 376.66,328.263 332.77,328.263 311.51,289.353 290.26,328.263 
	246.36,328.263 246.36,298.263 272.46,298.263 294.42,258.063 293.46,256.293 329.57,256.293 328.6,258.063 350.56,298.263 "/>
<g>
	<rect x="136.65" y="110.67" style="fill:#E67500;" width="30" height="36.842"/>
	<rect x="136.65" y="171.97" style="fill:#E67500;" width="30" height="38.3"/>
	<rect x="136.65" y="235.65" style="fill:#E67500;" width="30" height="38.3"/>
	<rect x="136.65" y="299.34" style="fill:#E67500;" width="30" height="38.3"/>
	<rect x="136.65" y="363.03" style="fill:#E67500;" width="30" height="38.3"/>
</g>
<g>
	<rect x="136.65" y="256.29" style="fill:#C06100;" width="30" height="17.66"/>
	<rect x="136.65" y="299.34" style="fill:#C06100;" width="30" height="38.3"/>
	<rect x="136.65" y="363.03" style="fill:#C06100;" width="30" height="38.3"/>
</g>
<g>
</g>
<g>
</g>
<g>
</g>
<g>
</g>
<g>
</g>
<g>
</g>
<g>
</g>
<g>
</g>
<g>
</g>
<g>
</g>
<g>
</g>
<g>
</g>
<g>
</g>
<g>
</g>
<g>
</g>
</svg>
