<?xml version="1.0" encoding="iso-8859-1"?>
<!-- Generator: Adobe Illustrator 19.0.0, SVG Export Plug-In . SVG Version: 6.00 Build 0)  -->
<svg version="1.1" id="Capa_1" xmlns="http://www.w3.org/2000/svg" xmlns:xlink="http://www.w3.org/1999/xlink" x="0px" y="0px"
	 viewBox="0 0 512 512" style="enable-background:new 0 0 512 512;" xml:space="preserve">
<rect y="111.26" style="fill:#00ACEA;" width="512" height="289.48"/>
<rect y="257.33" style="fill:#0082D1;" width="512" height="143.41"/>
<rect x="241" y="283.76" style="fill:#DFCDBD;" width="30" height="116.98"/>
<g>
	<rect x="241" y="111.26" style="fill:#F0E7DF;" width="30" height="109.27"/>
	<rect x="171.12" y="111.26" style="fill:#F0E7DF;" width="30" height="289.48"/>
	<rect x="310.88" y="111.26" style="fill:#F0E7DF;" width="30" height="289.48"/>
	<rect x="33.5" y="111.26" style="fill:#F0E7DF;" width="30" height="289.48"/>
	<rect x="448.5" y="111.26" style="fill:#F0E7DF;" width="30" height="289.48"/>
</g>
<g>
	<path style="fill:#FF3B62;" d="M271,215.96c-4.67-1.76-9.72-2.72-15-2.72s-10.33,0.96-15,2.72c-16.2,6.08-27.76,21.74-27.76,40.04
		c0,0.44,0.01,0.89,0.02,1.33c0.54,17.73,11.93,32.78,27.74,38.71c4.67,1.76,9.72,2.72,15,2.72c5.28,0,10.33-0.96,15-2.72
		c15.81-5.93,27.2-20.98,27.74-38.71c0.01-0.44,0.02-0.89,0.02-1.33C298.76,237.7,287.2,222.04,271,215.96z M256,268.76
		c-6.59,0-12.02-5.01-12.69-11.43c-0.05-0.43-0.07-0.88-0.07-1.33c0-7.04,5.72-12.76,12.76-12.76s12.76,5.72,12.76,12.76
		c0,0.45-0.02,0.9-0.07,1.33C268.02,263.75,262.59,268.76,256,268.76z"/>
	<path style="fill:#FF3B62;" d="M140.13,141.26c-6.6-4.29-14.47-6.78-22.91-6.78s-16.32,2.49-22.92,6.78
		c-11.61,7.53-19.3,20.6-19.3,35.43c0,23.28,18.94,42.22,42.22,42.22c23.27,0,42.21-18.94,42.21-42.22
		C159.43,161.86,151.74,148.79,140.13,141.26z M117.22,188.91c-6.74,0-12.22-5.48-12.22-12.22c0-6.73,5.48-12.21,12.22-12.21
		c6.73,0,12.21,5.48,12.21,12.21C129.43,183.43,123.95,188.91,117.22,188.91z"/>
</g>
<path style="fill:#D80322;" d="M117.22,293.09c-23.28,0-42.22,18.94-42.22,42.22c0,14.83,7.69,27.9,19.3,35.43
	c6.6,4.29,14.48,6.78,22.92,6.78s16.31-2.49,22.91-6.78c11.61-7.53,19.3-20.6,19.3-35.43C159.43,312.03,140.49,293.09,117.22,293.09
	z M117.22,323.09c6.73,0,12.21,5.48,12.21,12.22c0,6.73-5.48,12.21-12.21,12.21c-6.74,0-12.22-5.48-12.22-12.21
	C105,328.57,110.48,323.09,117.22,323.09z"/>
<path style="fill:#FF3B62;" d="M416.7,141.26c-6.6-4.29-14.48-6.78-22.92-6.78s-16.31,2.49-22.91,6.78
	c-11.61,7.53-19.3,20.6-19.3,35.43c0,23.28,18.94,42.22,42.21,42.22c23.28,0,42.22-18.94,42.22-42.22
	C436,161.86,428.31,148.79,416.7,141.26z M393.78,188.91c-6.73,0-12.21-5.48-12.21-12.22c0-6.73,5.48-12.21,12.21-12.21
	c6.74,0,12.22,5.48,12.22,12.21C406,183.43,400.52,188.91,393.78,188.91z"/>
<path style="fill:#D80322;" d="M393.78,293.09c-23.27,0-42.21,18.94-42.21,42.22c0,14.83,7.69,27.9,19.3,35.43
	c6.6,4.29,14.47,6.78,22.91,6.78s16.32-2.49,22.92-6.78c11.61-7.53,19.3-20.6,19.3-35.43C436,312.03,417.06,293.09,393.78,293.09z
	 M393.78,323.09c6.74,0,12.22,5.48,12.22,12.22c0,6.73-5.48,12.21-12.22,12.21c-6.73,0-12.21-5.48-12.21-12.21
	C381.57,328.57,387.05,323.09,393.78,323.09z"/>
<g>
	<rect x="33.5" y="257.33" style="fill:#DFCDBD;" width="30" height="143.41"/>
	<rect x="171.12" y="257.33" style="fill:#DFCDBD;" width="30" height="143.41"/>
</g>
<path style="fill:#D80322;" d="M298.74,257.33c-0.54,17.73-11.93,32.78-27.74,38.71c-4.67,1.76-9.72,2.72-15,2.72
	s-10.33-0.96-15-2.72c-15.81-5.93-27.2-20.98-27.74-38.71h30.05c0.67,6.42,6.1,11.43,12.69,11.43s12.02-5.01,12.69-11.43H298.74z"/>
<g>
	<rect x="310.88" y="257.33" style="fill:#DFCDBD;" width="30" height="143.41"/>
	<rect x="448.5" y="257.33" style="fill:#DFCDBD;" width="30" height="143.41"/>
</g>
<g>
</g>
<g>
</g>
<g>
</g>
<g>
</g>
<g>
</g>
<g>
</g>
<g>
</g>
<g>
</g>
<g>
</g>
<g>
</g>
<g>
</g>
<g>
</g>
<g>
</g>
<g>
</g>
<g>
</g>
</svg>
