<?xml version="1.0" encoding="iso-8859-1"?>
<!-- Generator: Adobe Illustrator 19.0.0, SVG Export Plug-In . SVG Version: 6.00 Build 0)  -->
<svg version="1.1" id="Capa_1" xmlns="http://www.w3.org/2000/svg" xmlns:xlink="http://www.w3.org/1999/xlink" x="0px" y="0px"
	 viewBox="0 0 512 512" style="enable-background:new 0 0 512 512;" xml:space="preserve">
<polygon style="fill:#FF3B62;" points="376.31,0 376.31,263.01 306.1,292.93 256.57,314.04 205.9,292.45 136.83,263.01 136.83,0 "/>
<polygon style="fill:#D80322;" points="376.31,0 376.31,263.01 306.1,292.93 256.57,314.04 256.57,0 "/>
<polygon style="fill:#F0E7DF;" points="306.1,10.3 306.1,292.93 256.57,314.04 205.9,292.45 205.9,10.3 "/>
<polygon style="fill:#DFCDBD;" points="306.1,10.3 306.1,292.93 256.57,314.04 256.57,10.3 "/>
<path style="fill:#FFAA20;" d="M378.35,389.65c0,67.38-54.47,122.04-121.78,122.35H256c-67.57,0-122.35-54.78-122.35-122.35
	S188.43,267.3,256,267.3h0.57C323.88,267.61,378.35,322.27,378.35,389.65z"/>
<path style="fill:#FF8900;" d="M378.35,389.65c0,67.38-54.47,122.04-121.78,122.35V267.3C323.88,267.61,378.35,322.27,378.35,389.65
	z"/>
<path style="fill:#E67500;" d="M331.63,389.65c0,41.58-33.55,75.32-75.06,75.62c-0.19,0.01-0.38,0.01-0.57,0.01
	c-41.77,0-75.63-33.86-75.63-75.63s33.86-75.63,75.63-75.63c0.19,0,0.38,0,0.57,0.01C298.08,314.33,331.63,348.07,331.63,389.65z"/>
<rect x="108.04" style="fill:#AEADB3;" width="295.92" height="30"/>
<path style="fill:#C06100;" d="M331.63,389.65c0,41.58-33.55,75.32-75.06,75.62V314.03C298.08,314.33,331.63,348.07,331.63,389.65z"
	/>
<rect x="256.57" style="fill:#8B8992;" width="147.39" height="30"/>
<g>
</g>
<g>
</g>
<g>
</g>
<g>
</g>
<g>
</g>
<g>
</g>
<g>
</g>
<g>
</g>
<g>
</g>
<g>
</g>
<g>
</g>
<g>
</g>
<g>
</g>
<g>
</g>
<g>
</g>
</svg>
