<?xml version="1.0" encoding="iso-8859-1"?>
<!-- Generator: Adobe Illustrator 19.0.0, SVG Export Plug-In . SVG Version: 6.00 Build 0)  -->
<svg version="1.1" id="Capa_1" xmlns="http://www.w3.org/2000/svg" xmlns:xlink="http://www.w3.org/1999/xlink" x="0px" y="0px"
	 viewBox="0 0 512 512" style="enable-background:new 0 0 512 512;" xml:space="preserve">
<rect x="241" style="fill:#006EF5;" width="30" height="36.97"/>
<rect x="256" style="fill:#002D6B;" width="15" height="36.97"/>
<path style="fill:#FFC473;" d="M359.42,116.49H152.58l4.8-18.73c10.98-42.81,51.54-72.71,98.62-72.71s87.64,29.9,98.62,72.71
	L359.42,116.49z"/>
<path style="fill:#FFA522;" d="M359.42,116.49H256V25.05c47.08,0,87.64,29.9,98.62,72.71L359.42,116.49z"/>
<rect x="151.75" y="86.49" style="fill:#006EF5;" width="208.5" height="90.3"/>
<rect x="256" y="86.49" style="fill:#002D6B;" width="104.25" height="90.3"/>
<path style="fill:#00ACEA;" d="M335.31,294.56c0,15.28,6.48,26.35,12.9,30.54c13.36,8.73,21.33,23.19,21.33,38.69V512H142.46V363.79
	c0-15.5,7.97-29.96,21.33-38.69c6.42-4.19,12.9-15.26,12.9-30.54s-6.48-26.35-12.9-30.54c-13.36-8.73-21.33-23.19-21.33-38.69
	v-78.54h227.08v78.54c0,15.5-7.97,29.96-21.33,38.69C341.79,268.21,335.31,279.28,335.31,294.56z"/>
<path style="fill:#0082D1;" d="M335.31,294.56c0,15.28,6.48,26.35,12.9,30.54c13.36,8.73,21.33,23.19,21.33,38.69V512H256V146.79
	h113.54v78.54c0,15.5-7.97,29.96-21.33,38.69C341.79,268.21,335.31,279.28,335.31,294.56z"/>
<rect x="142.46" y="422.73" style="fill:#FFC473;" width="227.08" height="30"/>
<rect x="256" y="422.73" style="fill:#FFA522;" width="113.54" height="30"/>
<g>
</g>
<g>
</g>
<g>
</g>
<g>
</g>
<g>
</g>
<g>
</g>
<g>
</g>
<g>
</g>
<g>
</g>
<g>
</g>
<g>
</g>
<g>
</g>
<g>
</g>
<g>
</g>
<g>
</g>
</svg>
