<?xml version="1.0" encoding="iso-8859-1"?>
<!-- Generator: Adobe Illustrator 19.0.0, SVG Export Plug-In . SVG Version: 6.00 Build 0)  -->
<svg version="1.1" id="Capa_1" xmlns="http://www.w3.org/2000/svg" xmlns:xlink="http://www.w3.org/1999/xlink" x="0px" y="0px"
	 viewBox="0 0 511.994 511.994" style="enable-background:new 0 0 511.994 511.994;" xml:space="preserve">
<path style="fill:#006EF5;" d="M332.207,374.409v72.369c0,18.763-15.791,35.775-44.462,47.902
	c-26.39,11.164-61.29,17.314-98.28,17.314s-71.89-6.15-98.28-17.313c-28.671-12.128-44.462-29.139-44.462-47.902V374.41h285.484
	V374.409z"/>
<path style="fill:#004EB2;" d="M332.207,374.409v72.369c0,18.763-15.791,35.775-44.462,47.902
	c-26.39,11.164-61.29,17.314-98.28,17.314V374.409H332.207z"/>
<path style="fill:#00459F;" d="M332.207,374.409c0,33.349-63.911,60.387-142.742,60.387c-78.832,0-142.742-27.037-142.742-60.387
	c0-33.355,63.911-60.392,142.742-60.392C268.297,314.017,332.207,341.055,332.207,374.409z"/>
<path style="fill:#002D6B;" d="M332.207,374.409c0,33.349-63.911,60.387-142.742,60.387V314.017
	C268.297,314.017,332.207,341.055,332.207,374.409z"/>
<g>
	<path style="fill:#AEADB3;" d="M343.783,312.343l-21.846-20.563c32.159-34.165,36.014-81.526,11.454-140.768
		c-19.382-46.756-49.809-83.266-50.113-83.629l22.955-19.315c1.353,1.606,33.372,39.929,54.6,90.801
		C390.218,209.289,384.321,269.275,343.783,312.343z"/>
	
		<rect x="250.381" y="7.902" transform="matrix(-0.6045 -0.7966 0.7966 -0.6045 411.3582 250.0346)" style="fill:#AEADB3;" width="34.734" height="29.999"/>
	<path style="fill:#AEADB3;" d="M379.416,415.241l-9.387-28.494l4.694,14.247l-4.772-14.22c1.664-0.569,40.944-14.483,57.776-61.601
		c9.117-25.52,9.978-56.32,2.561-91.546c-9.472-44.982-32.456-97.118-68.314-154.961l25.498-15.807
		c37.863,61.079,62.191,116.667,72.306,165.223c8.503,40.817,7.13,77.141-4.08,107.963
		C433.61,396.774,381.618,414.516,379.416,415.241z"/>
</g>
<g>
</g>
<g>
</g>
<g>
</g>
<g>
</g>
<g>
</g>
<g>
</g>
<g>
</g>
<g>
</g>
<g>
</g>
<g>
</g>
<g>
</g>
<g>
</g>
<g>
</g>
<g>
</g>
<g>
</g>
</svg>
