<?xml version="1.0" encoding="iso-8859-1"?>
<!-- Generator: Adobe Illustrator 19.0.0, SVG Export Plug-In . SVG Version: 6.00 Build 0)  -->
<svg version="1.1" id="Capa_1" xmlns="http://www.w3.org/2000/svg" xmlns:xlink="http://www.w3.org/1999/xlink" x="0px" y="0px"
	 viewBox="0 0 512 512" style="enable-background:new 0 0 512 512;" xml:space="preserve">
<path style="fill:#00459F;" d="M480.773,164.735c0.331-2.467,7.623-60.966-33.696-108.192C414.251,19.024,361.142,0,289.225,0
	c-47.009,0-88.628,8.234-123.702,24.473c-28.508,13.199-52.715,31.643-71.948,54.819c-32.871,39.608-39.727,79.337-40.002,81.009
	l29.591,4.936c0.009-0.053,0.167-0.929,0.533-2.495h382.209L480.773,164.735z"/>
<path style="fill:#57555C;" d="M278.704,512c-51.016,0-88.706-25.918-108.997-74.952c-14.563-35.193-14.73-69.96-14.73-71.423h30
	c0.001,0.281,0.247,30.939,12.749,60.668C213.271,463.257,240.517,482,278.704,482c36.984,0,63.941-12.688,80.125-37.71
	c11.991-18.541,13.664-37.33,13.677-37.514l29.92,2.19c-0.078,1.066-2.099,26.4-18.406,51.615
	C368.849,484.038,338.263,512,278.704,512z"/>
<polygon style="fill:#00459F;" points="311.33,259.692 311.33,315.758 328.054,375.294 328.054,422.871 442.551,422.871 
	442.551,377.775 480.906,320.332 480.906,259.692 "/>
<polygon style="fill:#D80322;" points="480.91,147.74 480.91,288.93 241.54,288.93 222.15,308.32 222.15,380.62 126.48,380.62 
	126.48,288.93 30.53,288.93 30.53,147.74 "/>
<polygon style="fill:#FF3B62;" points="309.55,147.74 30.53,147.74 30.53,288.93 126.48,288.93 241.54,288.93 301.93,288.93 
	362.73,242.22 362.73,196.86 "/>
<rect x="86.33" y="188.34" style="fill:#F0E7DF;" width="59.65" height="30"/>
<g>
	<rect x="371.33" y="363" style="fill:#DFCDBD;" width="29" height="29"/>
	<rect x="371.33" y="315.67" style="fill:#DFCDBD;" width="29" height="29"/>
</g>
<g>
</g>
<g>
</g>
<g>
</g>
<g>
</g>
<g>
</g>
<g>
</g>
<g>
</g>
<g>
</g>
<g>
</g>
<g>
</g>
<g>
</g>
<g>
</g>
<g>
</g>
<g>
</g>
<g>
</g>
</svg>
