<?xml version="1.0" encoding="iso-8859-1"?>
<!-- Generator: Adobe Illustrator 19.0.0, SVG Export Plug-In . SVG Version: 6.00 Build 0)  -->
<svg version="1.1" id="Capa_1" xmlns="http://www.w3.org/2000/svg" xmlns:xlink="http://www.w3.org/1999/xlink" x="0px" y="0px"
	 viewBox="0 0 512 512" style="enable-background:new 0 0 512 512;" xml:space="preserve">
<path style="fill:#FF3B62;" d="M512,395.697l-95.46,28.097l-17.595-62.451l-8.1-28.774l-15.294-54.291v172.586H136.439V278.278
	l-15.593,55.347l-8.1,28.774L95.45,423.794L0,395.697l13.52-61.833l6.397-29.253l37.114-169.787
	c4.543-20.804,16.191-39.625,32.78-52.985c16.599-13.351,37.462-20.704,58.764-20.704h214.851c21.302,0,42.165,7.353,58.764,20.704
	c16.589,13.361,28.236,32.182,32.78,52.985l37.024,169.338l6.387,29.253L512,395.697z"/>
<path style="fill:#D80322;" d="M512,395.697l-95.46,28.097l-17.595-62.451l-8.1-28.774l-15.294-54.291v172.586h-119.83V61.136
	h107.705c21.302,0,42.165,7.353,58.764,20.704c16.589,13.361,28.236,32.182,32.78,52.985l37.024,169.338l6.387,29.253L512,395.697z"
	/>
<polygon style="fill:#F0E7DF;" points="314.645,61.136 256.139,138.432 255.721,137.884 196.797,61.136 "/>
<g>
	<polygon style="fill:#00459F;" points="333.386,61.136 255.741,163.081 255.721,163.051 177.967,61.136 215.638,61.136 
		255.572,113.782 255.721,113.583 295.903,61.136 	"/>
	<rect x="136.439" y="363.366" style="fill:#00459F;" width="239.112" height="29.89"/>
	<polygon style="fill:#00459F;" points="120.846,333.625 112.746,362.399 13.52,333.864 19.917,304.612 	"/>
</g>
<polygon style="fill:#002D6B;" points="498.38,333.416 398.945,361.343 390.845,332.569 491.993,304.163 "/>
<g>
	<path style="fill:#F0E7DF;" d="M187.552,206.043v112.039h83.673V206.043H187.552z M241.335,288.192h-23.892v-52.258h23.892V288.192
		z"/>
	<rect x="292.018" y="206.243" style="fill:#F0E7DF;" width="29.89" height="111.152"/>
</g>
<g>
	<polygon style="fill:#DFCDBD;" points="314.645,61.136 256.139,138.432 255.721,137.884 255.721,61.136 	"/>
	<rect x="255.721" y="206.043" style="fill:#DFCDBD;" width="15.453" height="112.039"/>
	<rect x="292.018" y="206.243" style="fill:#DFCDBD;" width="29.89" height="111.152"/>
</g>
<g>
	<polygon style="fill:#002D6B;" points="255.741,163.081 255.721,163.051 255.721,113.583 295.903,61.136 333.386,61.136 	"/>
	<rect x="255.721" y="363.366" style="fill:#002D6B;" width="119.83" height="29.89"/>
</g>
<g>
</g>
<g>
</g>
<g>
</g>
<g>
</g>
<g>
</g>
<g>
</g>
<g>
</g>
<g>
</g>
<g>
</g>
<g>
</g>
<g>
</g>
<g>
</g>
<g>
</g>
<g>
</g>
<g>
</g>
</svg>
