<?xml version="1.0" encoding="iso-8859-1"?>
<!-- Generator: Adobe Illustrator 19.0.0, SVG Export Plug-In . SVG Version: 6.00 Build 0)  -->
<svg version="1.1" id="Capa_1" xmlns="http://www.w3.org/2000/svg" xmlns:xlink="http://www.w3.org/1999/xlink" x="0px" y="0px"
	 viewBox="0 0 512 512" style="enable-background:new 0 0 512 512;" xml:space="preserve">
<path style="fill:#FF3B62;" d="M438.33,164.11c-0.08-10.47-1.82-20.55-4.98-30c-7.54-22.59-23.14-41.52-43.36-53.38L340.51,0H171.49
	l-49.48,80.73c-20.22,11.86-35.82,30.79-43.36,53.38c-3.16,9.45-4.9,19.53-4.98,30c-0.01,0.26-0.01,0.53-0.01,0.8V367.3
	c0,23.15,11.24,45.01,30.07,58.47l22.54,16.1c7.26,5.19,12.58,12.41,15.39,20.88c9.77,29.46,37.18,49.25,68.21,49.25h92.26
	c31.03,0,58.44-19.79,68.21-49.25c2.81-8.47,8.13-15.69,15.39-20.88l22.54-16.1c18.83-13.46,30.07-35.32,30.07-58.47V164.91
	C438.34,164.64,438.34,164.37,438.33,164.11z"/>
<path style="fill:#D80322;" d="M438.34,164.91V367.3c0,23.15-11.24,45.01-30.07,58.47l-22.54,16.1
	c-7.26,5.19-12.58,12.41-15.39,20.88c-9.77,29.46-37.18,49.25-68.21,49.25H256V0h84.51l49.48,80.73
	c20.22,11.86,35.82,30.79,43.36,53.38c3.16,9.45,4.9,19.53,4.98,30C438.34,164.37,438.34,164.64,438.34,164.91z"/>
<path style="fill:#F0E7DF;" d="M438.34,218.53v-31.55l-66.14,21.54v-44.41h66.13c-0.08-10.47-1.82-20.55-4.98-30H78.65
	c-3.16,9.45-4.9,19.53-4.98,30h66.13v43.64l-66.14-20.84v31.45l66.14,20.85v45.19l-66.14-19.48v31.28l73.26,21.57h1.62l20.29,49.88
	h-13.74l-81.43-46.27v34.5l73.5,41.77h211.85l79.33-42.38v-34.01l-86.84,46.39h-8.33l20.29-49.88h4.94l69.94-21.29v-31.35
	l-66.14,20.13v-45.19L438.34,218.53z M241,367.65h-39.78l-20.29-49.88H241V367.65z M241,287.77h-71.2v-44.08H241V287.77z
	 M241,213.69h-71.2v-49.58H241V213.69z M310.78,367.65H271v-49.88h60.07L310.78,367.65z M342.2,287.77H271v-44.08h71.2V287.77z
	 M342.2,213.69H271v-49.58h71.2V213.69z"/>
<g>
	<rect x="194.33" y="443.33" style="fill:#8B8992;" width="29.333" height="29.333"/>
	<rect x="241.33" y="443.33" style="fill:#8B8992;" width="29.34" height="29.34"/>
	<rect x="288.33" y="443.33" style="fill:#8B8992;" width="29.34" height="29.34"/>
</g>
<g>
	<rect x="256" y="443.33" style="fill:#57555C;" width="14.67" height="29.34"/>
	<rect x="288.33" y="443.33" style="fill:#57555C;" width="29.34" height="29.34"/>
</g>
<path style="fill:#DFCDBD;" d="M438.34,218.53v-31.55l-66.14,21.54v-44.41h66.13c-0.08-10.47-1.82-20.55-4.98-30H256v263.54h103.01
	l79.33-42.38v-34.01l-86.84,46.39h-8.33l20.29-49.88h4.94l69.94-21.29v-31.35l-66.14,20.13v-45.19L438.34,218.53z M310.78,367.65
	H271v-49.88h60.07L310.78,367.65z M342.2,287.77H271v-44.08h71.2V287.77z M342.2,213.69H271v-49.58h71.2V213.69z"/>
<g>
</g>
<g>
</g>
<g>
</g>
<g>
</g>
<g>
</g>
<g>
</g>
<g>
</g>
<g>
</g>
<g>
</g>
<g>
</g>
<g>
</g>
<g>
</g>
<g>
</g>
<g>
</g>
<g>
</g>
</svg>
