<?xml version="1.0" encoding="iso-8859-1"?>
<!-- Generator: Adobe Illustrator 19.0.0, SVG Export Plug-In . SVG Version: 6.00 Build 0)  -->
<svg version="1.1" id="Capa_1" xmlns="http://www.w3.org/2000/svg" xmlns:xlink="http://www.w3.org/1999/xlink" x="0px" y="0px"
	 viewBox="0 0 512 512" style="enable-background:new 0 0 512 512;" xml:space="preserve">
<rect y="60.52" style="fill:#FFAA20;" width="512" height="419.89"/>
<rect x="256" y="60.52" style="fill:#FF8900;" width="256" height="419.89"/>
<rect x="66.5" y="162.74" style="fill:#F0E7DF;" width="379" height="254.37"/>
<rect x="256" y="162.74" style="fill:#DFCDBD;" width="189.5" height="254.37"/>
<g>
	<rect x="66.5" y="31.59" style="fill:#AEADB3;" width="30" height="86.52"/>
	<rect x="137.5" y="31.59" style="fill:#AEADB3;" width="30" height="86.52"/>
</g>
<g>
	<rect x="344.5" y="31.59" style="fill:#8B8992;" width="30" height="86.52"/>
	<rect x="415.5" y="31.59" style="fill:#8B8992;" width="30" height="86.52"/>
</g>
<path style="fill:#00459F;" d="M152,359.704h96V217.921h-96V359.704z M182,247.921h36v81.784h-36V247.921z"/>
<polygon style="fill:#002D6B;" points="279,217.921 279,247.921 330,247.921 330,273.813 279,273.813 279,303.813 330,303.813 
	330,329.704 279,329.704 279,359.704 360,359.704 360,217.921 "/>
<g>
</g>
<g>
</g>
<g>
</g>
<g>
</g>
<g>
</g>
<g>
</g>
<g>
</g>
<g>
</g>
<g>
</g>
<g>
</g>
<g>
</g>
<g>
</g>
<g>
</g>
<g>
</g>
<g>
</g>
</svg>
