<?xml version="1.0" encoding="iso-8859-1"?>
<!-- Generator: Adobe Illustrator 19.0.0, SVG Export Plug-In . SVG Version: 6.00 Build 0)  -->
<svg version="1.1" id="Capa_1" xmlns="http://www.w3.org/2000/svg" xmlns:xlink="http://www.w3.org/1999/xlink" x="0px" y="0px"
	 viewBox="0 0 512 512" style="enable-background:new 0 0 512 512;" xml:space="preserve">
<path style="fill:#00459F;" d="M436.22,161.2H75.78l35.29-86.3c11.24-27.48,35.06-48.53,63.71-56.31l56.04-15.23
	C239.06,1.12,247.53,0,256,0s16.94,1.12,25.18,3.36l56.04,15.23c28.65,7.78,52.47,28.83,63.71,56.31L436.22,161.2z"/>
<path style="fill:#002D6B;" d="M436.22,161.2H256V0c8.47,0,16.94,1.12,25.18,3.36l56.04,15.23c28.65,7.78,52.47,28.83,63.71,56.31
	L436.22,161.2z"/>
<polygon style="fill:#AEADB3;" points="200.906,483.639 112.745,445.436 82.047,368.974 109.887,357.796 135.99,422.813 
	212.835,456.113 "/>
<polygon style="fill:#8B8992;" points="306.401,483.749 294.991,456.003 376.071,422.66 402.113,357.796 429.953,368.974 
	399.193,445.589 "/>
<polygon style="fill:#00459F;" points="92.188,162.954 92.188,162.954 92.188,147.954 17.987,147.954 17.987,302.524 
	48.069,302.524 48.069,377.133 136.306,377.133 136.306,284.426 168.83,241.708 156.895,232.622 "/>
<polygon style="fill:#002D6B;" points="419.813,147.954 419.813,162.954 419.812,162.954 355.105,232.622 343.17,241.708 
	375.694,284.426 375.694,377.133 463.931,377.133 463.931,302.524 494.013,302.524 494.013,147.954 "/>
<rect x="194.09" y="427.75" style="fill:#00ACEA;" width="123.82" height="84.25"/>
<polygon style="fill:#FF3B62;" points="368.12,159 143.88,159 181.5,65.6 330.5,65.6 "/>
<polygon style="fill:#D80322;" points="368.12,159 256,159 256,65.6 330.5,65.6 "/>
<rect x="256" y="427.75" style="fill:#0082D1;" width="61.91" height="84.25"/>
<rect x="72.75" y="131.2" style="fill:#00ACEA;" width="366.5" height="112.75"/>
<rect x="256" y="131.2" style="fill:#0082D1;" width="183.25" height="112.75"/>
<g>
</g>
<g>
</g>
<g>
</g>
<g>
</g>
<g>
</g>
<g>
</g>
<g>
</g>
<g>
</g>
<g>
</g>
<g>
</g>
<g>
</g>
<g>
</g>
<g>
</g>
<g>
</g>
<g>
</g>
</svg>
