<?xml version="1.0" encoding="iso-8859-1"?>
<!-- Generator: Adobe Illustrator 19.0.0, SVG Export Plug-In . SVG Version: 6.00 Build 0)  -->
<svg version="1.1" id="Capa_1" xmlns="http://www.w3.org/2000/svg" xmlns:xlink="http://www.w3.org/1999/xlink" x="0px" y="0px"
	 viewBox="0 0 512 512" style="enable-background:new 0 0 512 512;" xml:space="preserve">
<path style="fill:#AEADB3;" d="M467.56,428.995l-22.46-78H66.9l-22.46,78c-4.64,16.13-1.51,33.07,8.58,46.47
	c10.09,13.41,25.5,21.1,42.29,21.1h321.38c16.79,0,32.2-7.69,42.29-21.1C469.07,462.065,472.2,445.125,467.56,428.995z
	 M112.58,428.835l13.77-47.84h259.3l13.77,47.84H112.58z"/>
<path style="fill:#8B8992;" d="M458.98,475.465c-10.09,13.41-25.5,21.1-42.29,21.1H256v-67.73h143.42l-13.77-47.84H256v-30h189.1
	l22.46,78C472.2,445.125,469.07,462.065,458.98,475.465z"/>
<path style="fill:#00459F;" d="M512,323.715v57.28H0V15.435h77.56c27.65,0,51.12,18.22,59.05,43.28l109.95-28.56l2.27,16.76
	c0.02,0.21,1.6,10.89,7.17,28.48c1.12,3.52,2.39,7.31,3.85,11.36c3,8.29,6.75,17.62,11.43,27.75c2.38,5.16,5.01,10.53,7.9,16.08
	c4.34,8.33,9.28,17.05,14.89,26.05c0.75,1.21,1.52,2.43,2.3,3.65c1.89,2.96,4.17,5.85,6.83,8.66c6.15,6.5,14.32,12.58,24.36,18.17
	c14.75,8.22,33.52,15.37,55.78,21.22c11.73,3.08,24.43,5.8,38.03,8.13C473.88,225.465,512,270.565,512,323.715z"/>
<path style="fill:#002D6B;" d="M512,323.715v57.28H256v-305.6c1.12,3.52,2.39,7.31,3.85,11.36c3,8.29,6.75,17.62,11.43,27.75
	c2.38,5.16,5.01,10.53,7.9,16.08c4.34,8.33,9.28,17.05,14.89,26.05c0.75,1.21,1.52,2.43,2.3,3.65c1.89,2.96,4.17,5.85,6.83,8.66
	c6.15,6.5,14.32,12.58,24.36,18.17c14.75,8.22,33.52,15.37,55.78,21.22c11.73,3.08,24.43,5.8,38.03,8.13
	C473.88,225.465,512,270.565,512,323.715z"/>
<path style="fill:#00ACEA;" d="M512,323.715v57.28H0v-217.35c47.49-4.25,86.32,0.12,118.52,13.3c30.28,12.4,51.03,30.67,71.11,48.33
	c19.78,17.4,38.68,34.05,66.37,44.67c7.42,2.85,15.48,5.27,24.35,7.15c30.9,6.56,55.44,3.11,72.94-10.24
	c23.66-18.06,29.04-50.17,30.05-58.52c11.73,3.08,24.43,5.8,38.03,8.13C473.88,225.465,512,270.565,512,323.715z"/>
<path style="fill:#0082D1;" d="M512,323.715v57.28H256v-111.05c7.42,2.85,15.48,5.27,24.35,7.15c30.9,6.56,55.44,3.11,72.94-10.24
	c23.66-18.06,29.04-50.17,30.05-58.52c11.73,3.08,24.43,5.8,38.03,8.13C473.88,225.465,512,270.565,512,323.715z"/>
<g>
	<path style="fill:#C8C6CD;" d="M271.28,114.505l-15.28,5.8l-39.27,14.89l-10.63-28.05l49.9-18.93l3.85-1.46
		C262.85,95.045,266.6,104.375,271.28,114.505z"/>
	<path style="fill:#C8C6CD;" d="M294.07,156.635L256,178.665l-12.43,7.19l-15.03-25.97l27.46-15.89l23.18-13.41
		C283.52,138.915,288.46,147.635,294.07,156.635z"/>
</g>
<g>
	<path style="fill:#AEADB3;" d="M327.56,187.115l-43.62,42.19l-20.86-21.56l40.12-38.8
		C309.35,175.445,317.52,181.525,327.56,187.115z"/>
	<path style="fill:#AEADB3;" d="M271.28,114.505l-15.28,5.8v-32.09l3.85-1.46C262.85,95.045,266.6,104.375,271.28,114.505z"/>
	<path style="fill:#AEADB3;" d="M294.07,156.635L256,178.665v-34.67l23.18-13.41C283.52,138.915,288.46,147.635,294.07,156.635z"/>
</g>
<g>
</g>
<g>
</g>
<g>
</g>
<g>
</g>
<g>
</g>
<g>
</g>
<g>
</g>
<g>
</g>
<g>
</g>
<g>
</g>
<g>
</g>
<g>
</g>
<g>
</g>
<g>
</g>
<g>
</g>
</svg>
