<?xml version="1.0" encoding="iso-8859-1"?>
<!-- Generator: Adobe Illustrator 19.0.0, SVG Export Plug-In . SVG Version: 6.00 Build 0)  -->
<svg version="1.1" id="Capa_1" xmlns="http://www.w3.org/2000/svg" xmlns:xlink="http://www.w3.org/1999/xlink" x="0px" y="0px"
	 viewBox="0 0 512 512" style="enable-background:new 0 0 512 512;" xml:space="preserve">
<polygon style="fill:#57555C;" points="334.94,42 334.94,124 304.94,124 304.94,72 207.06,72 207.06,121.35 177.06,121.35 
	177.06,42 "/>
<polygon style="fill:#3C3A41;" points="334.94,42 334.94,124 304.94,124 304.94,72 256.57,72 256.57,42 "/>
<rect y="112.61" style="fill:#FF3B62;" width="512" height="357.39"/>
<rect x="256.57" y="112.61" style="fill:#D80322;" width="255.43" height="357.39"/>
<g>
	<polygon style="fill:#F0E7DF;" points="331.36,257.73 331.36,325.92 290.1,325.92 290.1,367.19 221.9,367.19 221.9,325.92 
		180.64,325.92 180.64,257.73 221.9,257.73 221.9,216.46 290.1,216.46 290.1,257.73 	"/>
	<rect y="112.61" style="fill:#F0E7DF;" width="90" height="86.39"/>
</g>
<rect x="422" y="112.61" style="fill:#DFCDBD;" width="90" height="86.39"/>
<rect y="383.61" style="fill:#F0E7DF;" width="90" height="86.39"/>
<g>
	<rect x="422" y="383.61" style="fill:#DFCDBD;" width="90" height="86.39"/>
	<polygon style="fill:#DFCDBD;" points="290.1,257.73 331.36,257.73 331.36,325.92 290.1,325.92 290.1,367.19 256.57,367.19 
		256.57,216.46 290.1,216.46 	"/>
</g>
<g>
</g>
<g>
</g>
<g>
</g>
<g>
</g>
<g>
</g>
<g>
</g>
<g>
</g>
<g>
</g>
<g>
</g>
<g>
</g>
<g>
</g>
<g>
</g>
<g>
</g>
<g>
</g>
<g>
</g>
</svg>
