<?xml version="1.0" encoding="iso-8859-1"?>
<!-- Generator: Adobe Illustrator 19.0.0, SVG Export Plug-In . SVG Version: 6.00 Build 0)  -->
<svg version="1.1" id="Capa_1" xmlns="http://www.w3.org/2000/svg" xmlns:xlink="http://www.w3.org/1999/xlink" x="0px" y="0px"
	 viewBox="0 0 512 512" style="enable-background:new 0 0 512 512;" xml:space="preserve">
<rect x="73" style="fill:#00ACEA;" width="366" height="512"/>
<rect x="256" style="fill:#0082D1;" width="183" height="512"/>
<path style="fill:#FF3B62;" d="M190.569,165.333c-31.063,0-56.333-25.271-56.333-56.333s25.271-56.333,56.333-56.333
	S246.903,77.938,246.903,109S221.632,165.333,190.569,165.333z M190.569,82.666c-14.521,0-26.333,11.813-26.333,26.334
	s11.813,26.333,26.333,26.333S216.903,123.52,216.903,109S205.09,82.666,190.569,82.666z"/>
<path style="fill:#D80322;" d="M321.431,165.333c-31.063,0-56.334-25.271-56.334-56.333s25.271-56.333,56.334-56.333
	S377.764,77.938,377.764,109S352.493,165.333,321.431,165.333z M321.431,82.666c-14.521,0-26.334,11.813-26.334,26.334
	s11.813,26.333,26.334,26.333S347.764,123.52,347.764,109S335.951,82.666,321.431,82.666z"/>
<path style="fill:#FF3B62;" d="M190.569,312.333c-31.063,0-56.333-25.271-56.333-56.333s25.271-56.333,56.333-56.333
	s56.334,25.271,56.334,56.333S221.632,312.333,190.569,312.333z M190.569,229.667c-14.521,0-26.333,11.813-26.333,26.333
	c0,14.521,11.813,26.333,26.333,26.333S216.903,270.52,216.903,256C216.903,241.48,205.09,229.667,190.569,229.667z"/>
<path style="fill:#D80322;" d="M321.431,312.333c-31.063,0-56.334-25.271-56.334-56.333s25.271-56.333,56.334-56.333
	s56.333,25.271,56.333,56.333S352.493,312.333,321.431,312.333z M321.431,229.667c-14.521,0-26.334,11.813-26.334,26.333
	c0,14.521,11.813,26.333,26.334,26.333S347.764,270.52,347.764,256C347.764,241.48,335.951,229.667,321.431,229.667z"/>
<path style="fill:#FF3B62;" d="M190.569,459.333c-31.063,0-56.333-25.271-56.333-56.333s25.271-56.333,56.333-56.333
	s56.334,25.271,56.334,56.333S221.632,459.333,190.569,459.333z M190.569,376.667c-14.521,0-26.333,11.813-26.333,26.333
	s11.813,26.333,26.333,26.333S216.903,417.52,216.903,403S205.09,376.667,190.569,376.667z"/>
<path style="fill:#D80322;" d="M321.431,459.333c-31.063,0-56.334-25.271-56.334-56.333s25.271-56.333,56.334-56.333
	s56.333,25.271,56.333,56.333S352.493,459.333,321.431,459.333z M321.431,376.667c-14.521,0-26.334,11.813-26.334,26.333
	s11.813,26.333,26.334,26.333S347.764,417.52,347.764,403S335.951,376.667,321.431,376.667z"/>
<g>
</g>
<g>
</g>
<g>
</g>
<g>
</g>
<g>
</g>
<g>
</g>
<g>
</g>
<g>
</g>
<g>
</g>
<g>
</g>
<g>
</g>
<g>
</g>
<g>
</g>
<g>
</g>
<g>
</g>
</svg>
