<?xml version="1.0" encoding="iso-8859-1"?>
<!-- Generator: Adobe Illustrator 19.0.0, SVG Export Plug-In . SVG Version: 6.00 Build 0)  -->
<svg version="1.1" id="Capa_1" xmlns="http://www.w3.org/2000/svg" xmlns:xlink="http://www.w3.org/1999/xlink" x="0px" y="0px"
	 viewBox="0 0 512 512" style="enable-background:new 0 0 512 512;" xml:space="preserve">
<path style="fill:#FF3B62;" d="M430.657,174.657c0,39.318-27.577,105.434-81.953,196.539
	c-39.777,66.625-80.104,123.179-80.514,123.749L256.3,511.58L256,512l-12.19-17.056c-0.41-0.57-40.737-57.123-80.514-123.749
	c-54.375-91.105-81.953-157.221-81.953-196.539C81.343,78.356,159.699,0,256,0h0.26C352.441,0.14,430.657,78.446,430.657,174.657z"
	/>
<path style="fill:#D80322;" d="M430.657,174.657c0,39.318-27.577,105.434-81.953,196.539
	c-39.777,66.625-80.104,123.179-80.514,123.749L256.3,511.58h-0.04V0C352.441,0.14,430.657,78.446,430.657,174.657z"/>
<path style="fill:#006EF5;" d="M362.276,128.407v53.881c0,13.97-11.756,26.635-33.103,35.665
	c-19.649,8.311-45.632,12.89-73.172,12.89s-53.524-4.579-73.172-12.89c-21.346-9.03-33.103-21.695-33.103-35.665v-53.881H362.276z"
	/>
<path style="fill:#004EB2;" d="M362.276,128.407v53.881c0,13.97-11.756,26.635-33.103,35.665
	c-19.649,8.311-45.632,12.89-73.172,12.89V128.407H362.276z"/>
<path style="fill:#00459F;" d="M362.276,128.407c0,24.83-47.583,44.959-106.276,44.959s-106.276-20.13-106.276-44.959
	c0-24.834,47.583-44.964,106.276-44.964S362.276,103.573,362.276,128.407z"/>
<path style="fill:#002D6B;" d="M362.276,128.407c0,24.83-47.583,44.959-106.276,44.959V83.444
	C314.692,83.444,362.276,103.573,362.276,128.407z"/>
<g>
</g>
<g>
</g>
<g>
</g>
<g>
</g>
<g>
</g>
<g>
</g>
<g>
</g>
<g>
</g>
<g>
</g>
<g>
</g>
<g>
</g>
<g>
</g>
<g>
</g>
<g>
</g>
<g>
</g>
</svg>
