<?xml version="1.0" encoding="iso-8859-1"?>
<!-- Generator: Adobe Illustrator 19.0.0, SVG Export Plug-In . SVG Version: 6.00 Build 0)  -->
<svg version="1.1" id="Capa_1" xmlns="http://www.w3.org/2000/svg" xmlns:xlink="http://www.w3.org/1999/xlink" x="0px" y="0px"
	 viewBox="0 0 512 512" style="enable-background:new 0 0 512 512;" xml:space="preserve">
<path style="fill:#006EF5;" d="M512,52.612V94.2c0,10.783-9.075,20.56-25.551,27.529c-15.166,6.415-35.222,9.949-56.48,9.949
	s-41.314-3.535-56.48-9.949c-16.477-6.969-25.551-16.746-25.551-27.529V52.612H512z"/>
<path style="fill:#004EB2;" d="M512,52.612V94.2c0,10.783-9.075,20.56-25.551,27.529c-15.166,6.415-35.222,9.949-56.48,9.949V52.612
	H512z"/>
<ellipse style="fill:#00459F;" cx="429.969" cy="52.612" rx="82.026" ry="34.703"/>
<path style="fill:#002D6B;" d="M512,52.612c0,19.165-36.728,34.703-82.031,34.703v-69.41C475.272,17.905,512,33.443,512,52.612z"/>
<rect x="29.731" y="303.222" style="fill:#00ACEA;" width="128.916" height="175.885"/>
<rect x="94.188" y="303.222" style="fill:#0082D1;" width="64.458" height="175.885"/>
<rect x="197.621" y="240.263" style="fill:#FFAA20;" width="128.916" height="238.844"/>
<rect x="262.908" y="240.263" style="fill:#FF8900;" width="63.628" height="238.844"/>
<rect x="365.511" y="170.309" style="fill:#FF3B62;" width="128.916" height="308.798"/>
<rect x="430.228" y="170.309" style="fill:#D80322;" width="64.198" height="308.798"/>
<polygon style="fill:#AEADB3;" points="511.665,494.095 0,494.095 0,53.382 29.98,53.382 29.98,464.114 511.665,464.114 "/>
<g>
</g>
<g>
</g>
<g>
</g>
<g>
</g>
<g>
</g>
<g>
</g>
<g>
</g>
<g>
</g>
<g>
</g>
<g>
</g>
<g>
</g>
<g>
</g>
<g>
</g>
<g>
</g>
<g>
</g>
</svg>
