<?xml version="1.0" encoding="iso-8859-1"?>
<!-- Generator: Adobe Illustrator 19.0.0, SVG Export Plug-In . SVG Version: 6.00 Build 0)  -->
<svg version="1.1" id="Capa_1" xmlns="http://www.w3.org/2000/svg" xmlns:xlink="http://www.w3.org/1999/xlink" x="0px" y="0px"
	 viewBox="0 0 512.002 512.002" style="enable-background:new 0 0 512.002 512.002;" xml:space="preserve">
<path style="fill:#006EF5;" d="M337.053,210.433v85.442c0,22.152-18.644,42.237-52.493,56.555
	c-31.158,13.179-72.361,20.44-116.033,20.44s-84.876-7.261-116.033-20.44C18.644,338.112,0,318.026,0,295.875v-85.442H337.053z"/>
<path style="fill:#004EB2;" d="M337.053,210.433v85.442c0,22.152-18.644,42.237-52.493,56.555
	c-31.158,13.179-72.361,20.44-116.033,20.44V210.433H337.053z"/>
<path style="fill:#00459F;" d="M337.053,210.433c0,39.373-75.455,71.295-168.526,71.295S0,249.806,0,210.433
	c0-39.38,75.455-71.301,168.526-71.301C261.598,139.132,337.053,171.053,337.053,210.433z"/>
<path style="fill:#002D6B;" d="M337.053,210.433c0,39.373-75.455,71.295-168.526,71.295V139.132
	C261.598,139.132,337.053,171.053,337.053,210.433z"/>
<g>
	<rect x="386.121" y="245.503" style="fill:#AEADB3;" width="125.881" height="29.998"/>
	<rect x="386.121" y="183.007" style="fill:#AEADB3;" width="92.893" height="29.998"/>
	<rect x="386.121" y="305.998" style="fill:#AEADB3;" width="79.494" height="29.998"/>
</g>
<g>
</g>
<g>
</g>
<g>
</g>
<g>
</g>
<g>
</g>
<g>
</g>
<g>
</g>
<g>
</g>
<g>
</g>
<g>
</g>
<g>
</g>
<g>
</g>
<g>
</g>
<g>
</g>
<g>
</g>
</svg>
