<?xml version="1.0" encoding="iso-8859-1"?>
<!-- Generator: Adobe Illustrator 19.0.0, SVG Export Plug-In . SVG Version: 6.00 Build 0)  -->
<svg version="1.1" id="Capa_1" xmlns="http://www.w3.org/2000/svg" xmlns:xlink="http://www.w3.org/1999/xlink" x="0px" y="0px"
	 viewBox="0 0 512 512" style="enable-background:new 0 0 512 512;" xml:space="preserve">
<rect x="56.33" style="fill:#00ACEA;" width="399.34" height="512"/>
<rect x="256" style="fill:#0082D1;" width="199.67" height="512"/>
<polygon style="fill:#FF3B62;" points="141.989,137.966 108.028,101.174 130.072,80.826 144.111,96.034 185.111,59.765 
	204.988,82.235 "/>
<g>
	<rect x="209" y="97" style="fill:#F0E7DF;" width="175" height="30"/>
	<rect x="209" y="170.75" style="fill:#F0E7DF;" width="175" height="30"/>
	<rect x="209" y="244.5" style="fill:#F0E7DF;" width="175" height="30"/>
	<rect x="209" y="318.25" style="fill:#F0E7DF;" width="175" height="30"/>
	<rect x="209" y="392" style="fill:#F0E7DF;" width="175" height="30"/>
	<rect x="129" y="171" style="fill:#F0E7DF;" width="30" height="30"/>
	<rect x="129" y="244.5" style="fill:#F0E7DF;" width="30" height="30"/>
	<rect x="129" y="318" style="fill:#F0E7DF;" width="30" height="30"/>
	<rect x="129" y="391.5" style="fill:#F0E7DF;" width="30" height="30"/>
</g>
<g>
	<rect x="256" y="97" style="fill:#DFCDBD;" width="128" height="30"/>
	<rect x="256" y="170.75" style="fill:#DFCDBD;" width="128" height="30"/>
	<rect x="256" y="244.5" style="fill:#DFCDBD;" width="128" height="30"/>
	<rect x="256" y="318.25" style="fill:#DFCDBD;" width="128" height="30"/>
	<rect x="256" y="392" style="fill:#DFCDBD;" width="128" height="30"/>
</g>
<g>
</g>
<g>
</g>
<g>
</g>
<g>
</g>
<g>
</g>
<g>
</g>
<g>
</g>
<g>
</g>
<g>
</g>
<g>
</g>
<g>
</g>
<g>
</g>
<g>
</g>
<g>
</g>
<g>
</g>
</svg>
