<?xml version="1.0" encoding="iso-8859-1"?>
<!-- Generator: Adobe Illustrator 19.0.0, SVG Export Plug-In . SVG Version: 6.00 Build 0)  -->
<svg version="1.1" id="Capa_1" xmlns="http://www.w3.org/2000/svg" xmlns:xlink="http://www.w3.org/1999/xlink" x="0px" y="0px"
	 viewBox="0 0 512.001 512.001" style="enable-background:new 0 0 512.001 512.001;" xml:space="preserve">
<polygon style="fill:#E67500;" points="82.771,511.055 0,428.285 42.496,385.789 63.724,364.561 137.971,290.313 159.199,311.541 
	158.259,312.472 204.696,367.902 215.3,378.516 146.494,447.332 125.266,468.56 "/>
<rect x="35.971" y="401.547" transform="matrix(-0.7071 -0.7071 0.7071 -0.7071 -133.2338 777.927)" style="fill:#004EB2;" width="117.052" height="30.021"/>
<path style="fill:#D1FEFB;" d="M307.664,409.703c-54.605,0-105.939-21.261-144.557-59.878
	c-38.597-38.597-59.858-89.912-59.868-144.498v-0.05c0-54.605,21.261-105.939,59.868-144.547
	c79.713-79.713,209.402-79.713,289.104,0c39.866,39.866,59.799,92.231,59.789,144.597c-0.01,52.325-19.943,104.661-59.789,144.498
	C413.603,388.442,362.269,409.703,307.664,409.703z"/>
<path style="fill:#77FEF6;" d="M307.664,409.703c-54.605,0-105.939-21.261-144.557-59.878
	c-38.597-38.597-59.858-89.912-59.868-144.498h408.762c-0.01,52.325-19.943,104.661-59.789,144.498
	C413.603,388.442,362.269,409.703,307.664,409.703z"/>
<path style="fill:#006EF5;" d="M350.307,347.026h-71.841c-18.626,0-35.513-15.676-47.553-44.137
	c-11.081-26.198-17.186-60.843-17.186-97.562s6.105-71.364,17.186-97.562c12.039-28.462,28.927-44.137,47.553-44.137h71.841V347.026
	z"/>
<path style="fill:#004EB2;" d="M350.307,347.026h-71.841c-18.626,0-35.513-15.676-47.553-44.137
	c-11.081-26.198-17.186-60.843-17.186-97.562h136.58V347.026z"/>
<path style="fill:#00459F;" d="M350.307,347.026c-33.105,0-59.945-63.444-59.945-141.7s26.84-141.7,59.945-141.7
	c33.111,0,59.951,63.444,59.951,141.7S383.418,347.026,350.307,347.026z"/>
<path style="fill:#002D6B;" d="M350.307,347.026c-33.105,0-59.945-63.444-59.945-141.7h119.896
	C410.258,283.583,383.418,347.026,350.307,347.026z"/>
<g>
</g>
<g>
</g>
<g>
</g>
<g>
</g>
<g>
</g>
<g>
</g>
<g>
</g>
<g>
</g>
<g>
</g>
<g>
</g>
<g>
</g>
<g>
</g>
<g>
</g>
<g>
</g>
<g>
</g>
</svg>
