<?xml version="1.0" encoding="iso-8859-1"?>
<!-- Generator: Adobe Illustrator 19.0.0, SVG Export Plug-In . SVG Version: 6.00 Build 0)  -->
<svg version="1.1" id="Capa_1" xmlns="http://www.w3.org/2000/svg" xmlns:xlink="http://www.w3.org/1999/xlink" x="0px" y="0px"
	 viewBox="0 0 512 512" style="enable-background:new 0 0 512 512;" xml:space="preserve">
<g>
	<path style="fill:#00459F;" d="M3.479,47.084l-1.924,1.035l-0.546,8.271c-0.145,2.198-2.15,34.841,2.47,82.37V47.084z"/>
	<path style="fill:#00459F;" d="M489.215,244.946c-0.1,0.349-0.19,0.699-0.299,1.038c-2.745,9.831-5.719,19.433-8.933,28.815
		c-15.8,46.282-37.12,87.135-63.579,121.749c-38.188,49.975-87.075,86.905-145.434,109.882c-3.264,1.288-6.568,2.535-9.891,3.733
		l-5.08,1.837l-5.08-1.837c-3.324-1.198-6.627-2.445-9.891-3.733c-58.359-22.976-107.247-59.906-145.434-109.882
		c-26.56-34.754-47.949-75.806-63.769-122.318c-3.204-9.362-6.158-18.954-8.893-28.755c-0.05-0.18-0.1-0.349-0.15-0.529
		C-4.778,145.694,0.512,59.548,0.752,55.925l0.539-8.264l7.306-3.933C78.255,6.249,198.577,0.829,241.026,0.101
		c8.234-0.13,13.534-0.09,14.972-0.08c1.437-0.01,6.737-0.05,14.972,0.08c42.449,0.729,162.771,6.148,232.429,43.627l7.306,3.933
		l0.549,8.264C511.484,59.548,516.774,145.694,489.215,244.946z"/>
</g>
<path style="fill:#002D6B;" d="M489.215,244.946c-0.1,0.349-0.19,0.699-0.299,1.038c-2.745,9.831-5.719,19.433-8.933,28.815
	c-15.8,46.282-37.12,87.135-63.579,121.749c-38.188,49.975-87.075,86.905-145.434,109.882c-3.264,1.288-6.568,2.535-9.891,3.733
	l-5.08,1.837V0.021c1.437-0.01,6.737-0.05,14.972,0.08c42.449,0.729,162.771,6.148,232.429,43.627l7.306,3.933l0.549,8.264
	C511.484,59.548,516.774,145.694,489.215,244.946z"/>
<path style="fill:#D80322;" d="M489.215,244.946c-0.1,0.349-0.19,0.699-0.299,1.038c-2.745,9.831-5.719,19.433-8.933,28.815
	c-81.535-14.463-157.491-19.363-221.25-19.723V0.001c22.827-0.04,166.025,1.417,244.666,43.727l7.306,3.933l0.549,8.264
	C511.484,59.548,516.774,145.694,489.215,244.946z"/>
<path style="fill:#FF3B62;" d="M255.999,225.124V512l-5.08-1.837c-62.741-22.617-115.002-60.845-155.325-113.615
	c-26.56-34.754-47.949-75.806-63.769-122.318c-3.204-9.362-6.158-18.954-8.893-28.755c14.532-3.024,62.382-12.097,133.497-17.098
	C184.425,226.411,218.061,224.984,255.999,225.124z"/>
<g>
	<path style="fill:#F0E7DF;" d="M488.917,245.984c-2.745,9.831-5.719,19.433-8.933,28.815
		c-76.385-13.544-147.87-18.705-209.014-19.603V506.43c-3.264,1.288-6.568,2.535-9.891,3.733l-5.08,1.837l-5.08-1.837
		c-3.324-1.198-6.627-2.445-9.891-3.733V255.097c-31.051,0.23-58.838,1.497-82.504,3.154c-64.817,4.551-110.251,12.696-126.7,15.98
		c-3.204-9.362-6.158-18.954-8.893-28.755c14.532-3.024,62.382-12.097,133.497-17.098c24.254-1.707,52.75-3.004,84.6-3.224V0.101
		c8.234-0.13,13.534-0.09,14.972-0.08c1.437-0.01,6.737-0.05,14.972,0.08v225.153C334.6,226.172,409.188,231.592,488.917,245.984z"
		/>
	<polygon style="fill:#F0E7DF;" points="154.598,86.524 154.598,121.457 120.329,121.457 120.329,86.524 90.386,86.524 
		90.386,192.988 120.329,192.988 120.329,151.401 154.598,151.401 154.598,192.988 184.541,192.988 184.541,86.524 	"/>
</g>
<g>
	<polygon style="fill:#DFCDBD;" points="379.505,399.956 305.468,399.956 305.468,291.662 379.505,291.662 379.505,321.605 
		335.411,321.605 335.411,370.013 379.505,370.013 	"/>
	<path style="fill:#DFCDBD;" d="M488.917,245.984c-2.745,9.831-5.719,19.433-8.933,28.815
		c-76.385-13.544-147.87-18.705-209.014-19.603V506.43c-3.264,1.288-6.568,2.535-9.891,3.733l-5.08,1.837V0.021
		c1.437-0.01,6.737-0.05,14.972,0.08v225.153C334.6,226.172,409.188,231.592,488.917,245.984z"/>
</g>
<g>
</g>
<g>
</g>
<g>
</g>
<g>
</g>
<g>
</g>
<g>
</g>
<g>
</g>
<g>
</g>
<g>
</g>
<g>
</g>
<g>
</g>
<g>
</g>
<g>
</g>
<g>
</g>
<g>
</g>
</svg>
