<?xml version="1.0" encoding="iso-8859-1"?>
<!-- Generator: Adobe Illustrator 19.0.0, SVG Export Plug-In . SVG Version: 6.00 Build 0)  -->
<svg version="1.1" id="Capa_1" xmlns="http://www.w3.org/2000/svg" xmlns:xlink="http://www.w3.org/1999/xlink" x="0px" y="0px"
	 viewBox="0 0 511.982 511.982" style="enable-background:new 0 0 511.982 511.982;" xml:space="preserve">
<path style="fill:#006EF5;" d="M395.785,218.18v70.86c0,18.371-15.462,35.029-43.534,46.903
	c-25.84,10.93-60.012,16.952-96.23,16.952s-70.39-6.022-96.23-16.952c-28.073-11.874-43.534-28.532-43.534-46.903v-70.86
	L395.785,218.18L395.785,218.18z"/>
<path style="fill:#004EB2;" d="M395.785,218.18v70.86c0,18.371-15.462,35.029-43.534,46.903
	c-25.84,10.93-60.012,16.952-96.23,16.952V218.18H395.785z"/>
<path style="fill:#00459F;" d="M395.785,218.18c0,32.654-62.577,59.127-139.765,59.127s-139.765-26.473-139.765-59.127
	c0-32.659,62.577-59.133,139.765-59.133S395.785,185.521,395.785,218.18z"/>
<path style="fill:#002D6B;" d="M395.785,218.18c0,32.654-62.577,59.127-139.765,59.127V159.048
	C333.207,159.048,395.785,185.521,395.785,218.18z"/>
<rect x="241.024" y="0.01" style="fill:#FFAA20;" width="29.995" height="69.659"/>
<g>
	
		<rect x="325.572" y="16.835" transform="matrix(-0.924 -0.3824 0.3824 -0.924 635.4982 229.6366)" style="fill:#FF8900;" width="29.996" height="69.66"/>
	
		<rect x="413.008" y="26.642" transform="matrix(-0.7078 -0.7064 0.7064 -0.7078 671.8039 445.337)" style="fill:#FF8900;" width="29.995" height="114.172"/>
	
		<rect x="445.247" y="136.314" transform="matrix(-0.3836 -0.9235 0.9235 -0.3836 478.7435 661.831)" style="fill:#FF8900;" width="29.995" height="69.659"/>
	
		<rect x="462.135" y="220.845" transform="matrix(-0.0013 -1 1 -0.0013 222.0789 733.1397)" style="fill:#FF8900;" width="29.995" height="69.659"/>
	
		<rect x="425.644" y="325.229" transform="matrix(-0.9245 -0.3811 0.3811 -0.9245 756.5289 830.266)" style="fill:#FF8900;" width="69.657" height="29.994"/>
	
		<rect x="370.969" y="414.205" transform="matrix(-0.7133 -0.7009 0.7009 -0.7133 436.8017 1037.0966)" style="fill:#FF8900;" width="119.125" height="29.996"/>
	
		<rect x="306.264" y="445.062" transform="matrix(-0.3848 -0.923 0.923 -0.3848 47.7125 951.92)" style="fill:#FF8900;" width="69.659" height="29.995"/>
</g>
<g>
	<polygon style="fill:#FFAA20;" points="271.697,511.892 256.609,511.932 241.702,511.972 241.522,442.313 256.609,442.273 
		271.517,442.233 	"/>
	
		<rect x="157" y="425.686" transform="matrix(-0.925 -0.3799 0.3799 -0.925 156.145 951.8449)" style="fill:#FFAA20;" width="29.995" height="69.658"/>
	
		<rect x="67.905" y="370.697" transform="matrix(-0.7034 -0.7108 0.7108 -0.7034 -164.1058 790.6183)" style="fill:#FFAA20;" width="29.995" height="117.703"/>
	
		<rect x="37.031" y="306.521" transform="matrix(-0.3861 -0.9225 0.9225 -0.3861 -242.7685 521.1383)" style="fill:#FFAA20;" width="29.997" height="69.662"/>
	
		<rect x="19.892" y="222.023" transform="matrix(-0.004 -1 1 -0.004 -221.8213 292.7694)" style="fill:#FFAA20;" width="29.996" height="69.66"/>
	
		<rect x="16.522" y="157.235" transform="matrix(-0.9255 -0.3787 0.3787 -0.9255 33.6512 351.0814)" style="fill:#FFAA20;" width="69.658" height="29.994"/>
	
		<rect x="24.902" y="69.097" transform="matrix(-0.709 -0.7052 0.7052 -0.709 82.0185 202.0333)" style="fill:#FFAA20;" width="115.582" height="29.995"/>
	
		<rect x="135.55" y="37.086" transform="matrix(-0.3873 -0.9219 0.9219 -0.3873 188.3517 229.3346)" style="fill:#FFAA20;" width="69.656" height="29.994"/>
</g>
<g>
	<rect x="256.611" y="0.01" style="fill:#FF8900;" width="14.408" height="69.659"/>
	<polygon style="fill:#FF8900;" points="271.697,511.892 256.609,511.932 256.609,442.273 271.517,442.233 	"/>
</g>
<g>
</g>
<g>
</g>
<g>
</g>
<g>
</g>
<g>
</g>
<g>
</g>
<g>
</g>
<g>
</g>
<g>
</g>
<g>
</g>
<g>
</g>
<g>
</g>
<g>
</g>
<g>
</g>
<g>
</g>
</svg>
