<?xml version="1.0" encoding="iso-8859-1"?>
<!-- Generator: Adobe Illustrator 19.0.0, SVG Export Plug-In . SVG Version: 6.00 Build 0)  -->
<svg version="1.1" id="Capa_1" xmlns="http://www.w3.org/2000/svg" xmlns:xlink="http://www.w3.org/1999/xlink" x="0px" y="0px"
	 viewBox="0 0 512 512" style="enable-background:new 0 0 512 512;" xml:space="preserve">
<path style="fill:#00459F;" d="M449.3,129.57c-9.33-25-23.39-47.57-41.78-67.07c-18.4-19.51-40.11-34.87-64.52-45.64
	C317.65,5.67,290.63,0,262.67,0h-13.34C221.37,0,194.35,5.67,169,16.86c-24.41,10.77-46.12,26.13-64.52,45.64
	C86.09,82,72.03,104.57,62.7,129.57c-9.68,25.96-13.76,53.27-12.12,81.18l6.67,113.81C63.41,429.67,150.71,512,256,512
	s192.59-82.33,198.75-187.44l6.67-113.81C463.06,182.84,458.98,155.53,449.3,129.57z M297.83,86.88h29v29h-29V86.88z M241.5,55.17
	h29v29h-29V55.17z M241.5,117h29v29h-29V117z M185.17,86.88h29v29h-29V86.88z M217.66,250.82c-19.34,17.28-35.84,25.69-50.44,25.69
	c-33.77,0-61.24-26.36-61.24-58.75c0-32.4,27.47-58.75,61.24-58.75c14.6,0,31.1,8.4,50.44,25.69c12.93,11.56,22.44,23.02,22.84,23.5
	l7.91,9.56l-7.91,9.56C240.1,227.8,230.59,239.26,217.66,250.82z M270.5,444.5h-29v-29h29V444.5z M270.5,397.83h-29v-29h29V397.83z
	 M270.5,351.17h-29v-29h29V351.17z M344.78,276.51c-14.6,0-31.1-8.41-50.44-25.69c-12.93-11.56-22.44-23.02-22.84-23.5l-7.91-9.56
	l7.91-9.56c0.4-0.48,9.91-11.94,22.84-23.5c19.34-17.29,35.84-25.69,50.44-25.69c33.77,0,61.24,26.35,61.24,58.75
	C406.02,250.15,378.55,276.51,344.78,276.51z"/>
<path style="fill:#002D6B;" d="M449.3,129.57c-9.33-25-23.39-47.57-41.78-67.07c-18.4-19.51-40.11-34.87-64.52-45.64
	C317.65,5.67,290.63,0,262.67,0H256v55.17h14.5v29H256V117h14.5v29H256v176.17h14.5v29H256v17.66h14.5v29H256v17.67h14.5v29H256V512
	c105.29,0,192.59-82.33,198.75-187.44l6.67-113.81C463.06,182.84,458.98,155.53,449.3,129.57z M297.83,86.88h29v29h-29V86.88z
	 M344.78,276.51c-14.6,0-31.1-8.41-50.44-25.69c-12.93-11.56-22.44-23.02-22.84-23.5l-7.91-9.56l7.91-9.56
	c0.4-0.48,9.91-11.94,22.84-23.5c19.34-17.29,35.84-25.69,50.44-25.69c33.77,0,61.24,26.35,61.24,58.75
	C406.02,250.15,378.55,276.51,344.78,276.51z"/>
<g>
</g>
<g>
</g>
<g>
</g>
<g>
</g>
<g>
</g>
<g>
</g>
<g>
</g>
<g>
</g>
<g>
</g>
<g>
</g>
<g>
</g>
<g>
</g>
<g>
</g>
<g>
</g>
<g>
</g>
</svg>
