<?xml version="1.0" encoding="iso-8859-1"?>
<!-- Generator: Adobe Illustrator 19.0.0, SVG Export Plug-In . SVG Version: 6.00 Build 0)  -->
<svg version="1.1" id="Capa_1" xmlns="http://www.w3.org/2000/svg" xmlns:xlink="http://www.w3.org/1999/xlink" x="0px" y="0px"
	 viewBox="0 0 512 512" style="enable-background:new 0 0 512 512;" xml:space="preserve">
<path style="fill:#AEADB3;" d="M256,0c-23.889,0-43.325,19.436-43.325,43.325c0,12.579,5.455,24.523,14.974,32.762l4.329,3.746
	h48.043l4.319-3.746c9.529-8.239,14.984-20.184,14.984-32.762C299.325,19.436,279.889,0,256,0z M267.207,49.128h-22.415
	c-0.921-1.771-1.412-3.756-1.412-5.803c0-6.96,5.66-12.62,12.62-12.62c6.96,0,12.62,5.66,12.62,12.62
	C268.62,45.372,268.128,47.358,267.207,49.128z"/>
<path style="fill:#8B8992;" d="M299.325,43.325c0,12.579-5.455,24.523-14.984,32.762l-4.319,3.746H256V49.128h11.207
	c0.921-1.771,1.412-3.756,1.412-5.803c0-6.96-5.66-12.62-12.62-12.62V0C279.889,0,299.325,19.436,299.325,43.325z"/>
<rect x="80.65" y="49" style="fill:#D1FEFB;" width="350.7" height="463"/>
<rect x="256" y="49" style="fill:#77FEF6;" width="175.35" height="463"/>
<rect x="167.5" y="49" style="fill:#006EF5;" width="177" height="74"/>
<path style="fill:#00459F;" d="M167.251,432.248c-23.711,0-43.001-19.29-43.001-43.001s19.29-43.002,43.001-43.002
	s43.002,19.291,43.002,43.002S190.963,432.248,167.251,432.248z M167.251,376.245c-7.169,0-13.001,5.833-13.001,13.002
	s5.832,13.001,13.001,13.001s13.002-5.832,13.002-13.001S174.421,376.245,167.251,376.245z"/>
<path style="fill:#002D6B;" d="M339.53,253.259c-23.713,0-43.004-19.291-43.004-43.004s19.291-43.005,43.004-43.005
	s43.005,19.292,43.005,43.005S363.243,253.259,339.53,253.259z M339.53,197.25c-7.17,0-13.004,5.834-13.004,13.005
	c0,7.17,5.834,13.004,13.004,13.004c7.171,0,13.005-5.834,13.005-13.004C352.535,203.084,346.701,197.25,339.53,197.25z"/>
<polygon style="fill:#FF3B62;" points="226.29,187.962 204.501,207.33 185.133,185.54 162.711,205.472 182.079,227.26 
	160.29,246.628 180.221,269.05 202.009,249.682 221.377,271.472 243.799,251.54 224.432,229.751 246.221,210.384 "/>
<polygon style="fill:#D80322;" points="363.966,396.878 344.034,374.456 322.246,393.823 302.878,372.034 280.456,391.966 
	299.823,413.754 278.034,433.122 297.966,455.544 319.754,436.177 339.122,457.966 361.544,438.034 342.177,416.246 "/>
<path style="fill:#AEADB3;" d="M335.9,274.06c-0.11,0.95-2.87,23.67-17.1,47.27c-10.79,17.92-29.98,39.2-62.8,49.04
	c-7.86,2.36-16.51,4.06-26.01,4.9l-2.64-29.88c10.48-0.93,20.04-3.21,28.65-6.86c15.52-6.55,27.94-17.48,37.11-32.69
	c10.73-17.8,12.97-35.06,12.99-35.23L335.9,274.06z"/>
<path style="fill:#8B8992;" d="M306.1,270.61l29.8,3.45c-0.11,0.95-2.87,23.67-17.1,47.27c-10.79,17.92-29.98,39.2-62.8,49.04
	v-31.84c15.52-6.55,27.94-17.48,37.11-32.69C303.84,288.04,306.08,270.78,306.1,270.61z"/>
<rect x="256" y="49" style="fill:#004EB2;" width="88.5" height="74"/>
<g>
</g>
<g>
</g>
<g>
</g>
<g>
</g>
<g>
</g>
<g>
</g>
<g>
</g>
<g>
</g>
<g>
</g>
<g>
</g>
<g>
</g>
<g>
</g>
<g>
</g>
<g>
</g>
<g>
</g>
</svg>
