<?xml version="1.0" encoding="iso-8859-1"?>
<!-- Generator: Adobe Illustrator 19.0.0, SVG Export Plug-In . SVG Version: 6.00 Build 0)  -->
<svg version="1.1" id="Capa_1" xmlns="http://www.w3.org/2000/svg" xmlns:xlink="http://www.w3.org/1999/xlink" x="0px" y="0px"
	 viewBox="0 0 512 512" style="enable-background:new 0 0 512 512;" xml:space="preserve">
<polygon style="fill:#FFAA20;" points="417.371,63.634 417.371,239.314 94.63,239.314 94.63,63.634 186.453,98.377 256.001,0 
	325.548,98.377 "/>
<polygon style="fill:#FF8900;" points="417.371,63.634 417.371,239.314 256.001,239.314 256.001,0 325.548,98.377 "/>
<path style="fill:#006EF5;" d="M432.286,342.084v89.376c0,23.172-19.502,44.182-54.911,59.159C344.783,504.404,301.683,512,256,512
	s-88.783-7.596-121.375-21.381c-35.409-14.977-54.911-35.987-54.911-59.159v-89.376H432.286z"/>
<path style="fill:#004EB2;" d="M432.286,342.084v89.376c0,23.172-19.502,44.182-54.911,59.159C344.783,504.404,301.683,512,256,512
	V342.084H432.286z"/>
<path style="fill:#00459F;" d="M432.286,342.084c0,41.186-78.929,74.577-176.286,74.577S79.714,383.27,79.714,342.084
	c0-41.193,78.929-74.584,176.286-74.584S432.286,300.891,432.286,342.084z"/>
<path style="fill:#002D6B;" d="M432.286,342.084c0,41.186-78.929,74.577-176.286,74.577V267.5
	C353.357,267.499,432.286,300.891,432.286,342.084z"/>
<rect x="241.243" y="164.016" style="fill:#E67500;" width="29.52" height="29.52"/>
<rect x="323.301" y="164.016" style="fill:#C06100;" width="29.52" height="29.52"/>
<rect x="159.185" y="164.016" style="fill:#E67500;" width="29.52" height="29.52"/>
<rect x="255.998" y="164.016" style="fill:#C06100;" width="14.76" height="29.52"/>
<g>
</g>
<g>
</g>
<g>
</g>
<g>
</g>
<g>
</g>
<g>
</g>
<g>
</g>
<g>
</g>
<g>
</g>
<g>
</g>
<g>
</g>
<g>
</g>
<g>
</g>
<g>
</g>
<g>
</g>
</svg>
