<?xml version="1.0" encoding="iso-8859-1"?>
<!-- Generator: Adobe Illustrator 19.0.0, SVG Export Plug-In . SVG Version: 6.00 Build 0)  -->
<svg version="1.1" id="Capa_1" xmlns="http://www.w3.org/2000/svg" xmlns:xlink="http://www.w3.org/1999/xlink" x="0px" y="0px"
	 viewBox="0 0 512 512" style="enable-background:new 0 0 512 512;" xml:space="preserve">
<path style="fill:#FF3B62;" d="M423,392v120H89V392c0-37.84,19.03-71.31,48.02-91.35c9.11-6.31,19.2-11.28,30-14.65
	c7.01-2.19,14.32-3.69,21.85-4.44c0.88-0.09,1.75-0.17,2.63-0.23c0.13-0.01,0.26-0.02,0.39-0.03c0.53-0.04,1.07-0.08,1.6-0.1
	c0.27-0.03,0.54-0.04,0.82-0.05c0.18-0.01,0.36-0.02,0.54-0.03h0.08c0.69-0.04,1.38-0.06,2.08-0.07c0.08-0.01,0.17-0.01,0.25-0.01
	h0.01c0.03-0.01,0.07-0.01,0.1,0c0.12-0.01,0.23-0.01,0.35-0.01c0.76-0.02,1.52-0.03,2.28-0.03h112c0.76,0,1.52,0.01,2.28,0.03
	c0.12,0,0.23,0,0.35,0.01c0.03-0.01,0.07-0.01,0.1,0h0.01c0.08,0,0.17,0,0.25,0.01c0.7,0.01,1.39,0.03,2.08,0.07h0.08
	c0.18,0.01,0.36,0.02,0.54,0.03c0.28,0.01,0.55,0.02,0.82,0.05c0.53,0.02,1.07,0.06,1.6,0.1c0.13,0.01,0.26,0.02,0.39,0.03
	c0.88,0.06,1.75,0.14,2.63,0.23c7.53,0.75,14.84,2.25,21.85,4.44c10.8,3.37,20.89,8.34,30,14.65C403.97,320.69,423,354.16,423,392z"
	/>
<path style="fill:#D80322;" d="M423,392v120H256V281h56c0.76,0,1.52,0.01,2.28,0.03c0.12,0,0.23,0,0.35,0.01
	c0.03-0.01,0.07-0.01,0.1,0h0.01c0.08,0,0.17,0,0.25,0.01c0.7,0.01,1.39,0.03,2.08,0.07h0.08c0.18,0.01,0.36,0.02,0.54,0.03
	c0.28,0.01,0.55,0.02,0.82,0.05c0.53,0.02,1.07,0.06,1.6,0.1c0.13,0.01,0.26,0.02,0.39,0.03c0.88,0.06,1.75,0.14,2.63,0.23
	c7.53,0.75,14.84,2.25,21.85,4.44c10.8,3.37,20.89,8.34,30,14.65C403.97,320.69,423,354.16,423,392z"/>
<g>
	<path style="fill:#F0E7DF;" d="M167.02,286v226h-30V300.65C146.13,294.34,156.22,289.37,167.02,286z"/>
	<rect x="206.34" y="309" style="fill:#F0E7DF;" width="30" height="203"/>
</g>
<g>
	<polygon style="fill:#DFCDBD;" points="305.66,512 305.66,315.78 305.66,309 275.66,309 275.66,374.53 275.66,512 	"/>
	<path style="fill:#DFCDBD;" d="M374.98,300.65V512h-30V286C355.78,289.37,365.87,294.34,374.98,300.65z"/>
</g>
<path style="fill:#00459F;" d="M323.13,281.56L256,413.04l-67.13-131.48c3.66-0.37,7.37-0.56,11.13-0.56h22.27L256,347.06
	L289.73,281H312C315.76,281,319.47,281.19,323.13,281.56z"/>
<path style="fill:#002D6B;" d="M323.13,281.56L256,413.04v-65.98L289.73,281H312C315.76,281,319.47,281.19,323.13,281.56z"/>
<path style="fill:#FFC473;" d="M356.848,175.77c0,33.725-9.983,65.597-28.117,89.756C309.609,290.977,283.781,305,256,305
	s-53.609-14.023-72.731-39.474c-18.134-24.159-28.117-56.031-28.117-89.756c0-1.964,0.031-3.999,0.102-6.055L155.783,155h200.434
	l0.529,14.715C356.818,171.771,356.848,173.806,356.848,175.77z"/>
<path style="fill:#FFAA20;" d="M356.848,175.77c0,33.725-9.983,65.597-28.117,89.756C309.609,290.977,283.781,305,256,305V155
	h100.217l0.529,14.715C356.818,171.771,356.848,173.806,356.848,175.77z"/>
<path style="fill:#00459F;" d="M372.134,103.877H139.866l22.741-55.612c7.243-17.708,22.593-31.273,41.055-36.286l36.112-9.814
	C245.084,0.722,250.542,0,256,0c5.458,0,10.916,0.722,16.226,2.165l36.112,9.814c18.462,5.013,33.812,18.578,41.055,36.286
	L372.134,103.877z"/>
<path style="fill:#002D6B;" d="M372.134,103.877H256V0c5.458,0,10.916,0.722,16.226,2.165l36.112,9.814
	c18.462,5.013,33.812,18.578,41.055,36.286L372.134,103.877z"/>
<polygon style="fill:#00459F;" points="150.439,105.007 150.439,105.007 150.439,95.341 102.624,95.341 102.624,194.947 
	122.009,194.947 122.009,243.025 178.869,243.025 178.869,183.284 199.827,155.757 192.136,149.902 "/>
<polygon style="fill:#002D6B;" points="361.561,95.341 361.561,105.007 361.561,105.007 319.863,149.902 312.173,155.757 
	333.131,183.284 333.131,243.025 389.991,243.025 389.991,194.947 409.375,194.947 409.375,95.341 "/>
<polygon style="fill:#FF3B62;" points="328.25,102.46 183.75,102.46 207.992,42.273 304.008,42.273 "/>
<polygon style="fill:#D80322;" points="328.25,102.46 256,102.46 256,42.273 304.008,42.273 "/>
<rect x="137.91" y="84.55" style="fill:#00ACEA;" width="236.17" height="72.66"/>
<rect x="256" y="84.55" style="fill:#0082D1;" width="118.09" height="72.66"/>
<g>
</g>
<g>
</g>
<g>
</g>
<g>
</g>
<g>
</g>
<g>
</g>
<g>
</g>
<g>
</g>
<g>
</g>
<g>
</g>
<g>
</g>
<g>
</g>
<g>
</g>
<g>
</g>
<g>
</g>
</svg>
