<?xml version="1.0" encoding="iso-8859-1"?>
<!-- Generator: Adobe Illustrator 19.0.0, SVG Export Plug-In . SVG Version: 6.00 Build 0)  -->
<svg version="1.1" id="Capa_1" xmlns="http://www.w3.org/2000/svg" xmlns:xlink="http://www.w3.org/1999/xlink" x="0px" y="0px"
	 viewBox="0 0 512 512" style="enable-background:new 0 0 512 512;" xml:space="preserve">
<rect y="86.85" style="fill:#FFAA20;" width="512" height="338.3"/>
<rect x="256" y="86.85" style="fill:#FF8900;" width="256" height="338.3"/>
<rect y="165.96" style="fill:#57555C;" width="512" height="83.4"/>
<g>
	<path style="fill:#00459F;" d="M97.093,334.676c0-5.111,0.962-10.145,2.891-15.101c1.926-4.955,4.737-9.397,8.435-13.331
		c3.696-3.932,8.179-7.116,13.449-9.556c5.268-2.436,11.285-3.657,18.05-3.657c8.099,0,15.119,1.672,21.058,5.015
		c5.938,3.344,10.361,7.768,13.272,13.271l-17.578,12.505c-0.787-2.044-1.829-3.734-3.126-5.072
		c-1.297-1.337-2.733-2.398-4.306-3.186c-1.574-0.785-3.206-1.337-4.896-1.651c-1.692-0.314-3.324-0.473-4.896-0.473
		c-3.303,0-6.155,0.649-8.553,1.947c-2.4,1.297-4.365,2.989-5.899,5.072c-1.534,2.085-2.674,4.444-3.421,7.078
		c-0.749,2.637-1.121,5.25-1.121,7.846c0,2.91,0.431,5.703,1.297,8.376c0.865,2.675,2.124,5.034,3.775,7.078
		c1.651,2.046,3.675,3.678,6.075,4.896c2.398,1.221,5.091,1.829,8.081,1.829c1.573,0,3.186-0.177,4.837-0.531
		c1.652-0.353,3.244-0.943,4.778-1.77c1.534-0.825,2.909-1.888,4.129-3.185c1.218-1.297,2.182-2.89,2.89-4.777l18.757,11.207
		c-1.259,3.067-3.167,5.821-5.721,8.258c-2.557,2.439-5.467,4.483-8.73,6.135c-3.265,1.652-6.765,2.911-10.499,3.775
		c-3.737,0.864-7.374,1.298-10.913,1.298c-6.214,0-11.897-1.239-17.047-3.716c-5.152-2.478-9.596-5.761-13.331-9.852
		c-3.736-4.088-6.626-8.729-8.671-13.92C98.115,345.294,97.093,340.026,97.093,334.676z"/>
	<path style="fill:#00459F;" d="M203.623,293.504h20.999l29.021,83.76h-23.358l-5.073-16.398h-22.297l-4.955,16.398h-23.477
		L203.623,293.504z M221.555,345.53l-7.432-25.954l-7.786,25.954H221.555z"/>
</g>
<g>
	<path style="fill:#002D6B;" d="M260.602,377.264v-83.76h38.459c4.089,0,7.863,0.846,11.325,2.536
		c3.46,1.692,6.43,3.892,8.907,6.606c2.478,2.713,4.424,5.821,5.839,9.319c1.416,3.501,2.124,7.02,2.124,10.559
		c0,4.878-1.061,9.42-3.186,13.626c-2.123,4.208-5.072,7.649-8.848,10.322l17.695,30.791h-25.953l-14.747-25.718h-8.611v25.718
		h-23.004V377.264z M283.607,331.491h14.51c1.416,0,2.732-0.785,3.952-2.359c1.219-1.572,1.829-3.775,1.829-6.607
		c0-2.908-0.708-5.132-2.124-6.665c-1.415-1.534-2.831-2.301-4.247-2.301h-13.92V331.491z"/>
	<path style="fill:#002D6B;" d="M340.232,377.264v-83.76h32.206c6.92,0,13.016,1.102,18.286,3.303
		c5.268,2.203,9.674,5.19,13.213,8.966s6.212,8.199,8.022,13.272c1.809,5.072,2.714,10.48,2.714,16.221
		c0,6.37-1.003,12.133-3.009,17.283c-2.005,5.151-4.857,9.556-8.553,13.213c-3.697,3.657-8.14,6.488-13.331,8.494
		c-5.19,2.005-10.971,3.008-17.342,3.008H340.232z M391.315,335.266c0-3.224-0.434-6.173-1.298-8.848
		c-0.866-2.673-2.105-4.955-3.716-6.843c-1.613-1.888-3.599-3.362-5.958-4.424c-2.359-1.061-4.995-1.593-7.904-1.593h-9.201v43.649
		h9.201c2.988,0,5.663-0.549,8.022-1.651c2.359-1.101,4.345-2.634,5.958-4.601c1.61-1.965,2.831-4.286,3.656-6.961
		C390.901,341.323,391.315,338.413,391.315,335.266z"/>
</g>
<rect x="256" y="165.96" style="fill:#3C3A41;" width="256" height="83.4"/>
<g>
</g>
<g>
</g>
<g>
</g>
<g>
</g>
<g>
</g>
<g>
</g>
<g>
</g>
<g>
</g>
<g>
</g>
<g>
</g>
<g>
</g>
<g>
</g>
<g>
</g>
<g>
</g>
<g>
</g>
</svg>
