<?xml version="1.0" encoding="iso-8859-1"?>
<!-- Generator: Adobe Illustrator 19.0.0, SVG Export Plug-In . SVG Version: 6.00 Build 0)  -->
<svg version="1.1" id="Capa_1" xmlns="http://www.w3.org/2000/svg" xmlns:xlink="http://www.w3.org/1999/xlink" x="0px" y="0px"
	 viewBox="0 0 512 512" style="enable-background:new 0 0 512 512;" xml:space="preserve">
<path style="fill:#FFAA20;" d="M367.831,400.169C367.831,461.83,317.67,512,256,512s-111.831-50.17-111.831-111.831
	c0-41.79,23.04-78.291,57.08-97.491v-67.451H310.75v67.451C344.791,321.879,367.831,358.379,367.831,400.169z"/>
<path style="fill:#E67500;" d="M326.171,400.169c0,38.69-31.48,70.161-70.171,70.161s-70.171-31.47-70.171-70.161
	s31.48-70.171,70.171-70.171S326.171,361.479,326.171,400.169z"/>
<path style="fill:#FF8900;" d="M367.831,400.169C367.831,461.83,317.67,512,256,512V235.228h54.75v67.451
	C344.791,321.879,367.831,358.379,367.831,400.169z"/>
<path style="fill:#C06100;" d="M326.171,400.169c0,38.69-31.48,70.161-70.171,70.161V329.999
	C294.69,329.999,326.171,361.479,326.171,400.169z"/>
<polygon style="fill:#005FD2;" points="347.511,0 347.501,30 347.501,83.001 164.489,83.001 164.489,0 "/>
<polygon style="fill:#004DB1;" points="347.511,0 347.501,30 347.501,83.001 256,83.001 256,0 "/>
<polygon style="fill:#FF3B62;" points="164.749,0.009 81.211,103.562 143.862,265.223 267.533,265.223 "/>
<polygon style="fill:#D80322;" points="347.251,0.009 244.466,265.223 368.136,265.223 430.789,103.562 "/>
<g>
</g>
<g>
</g>
<g>
</g>
<g>
</g>
<g>
</g>
<g>
</g>
<g>
</g>
<g>
</g>
<g>
</g>
<g>
</g>
<g>
</g>
<g>
</g>
<g>
</g>
<g>
</g>
<g>
</g>
</svg>
