<?xml version="1.0" encoding="iso-8859-1"?>
<!-- Generator: Adobe Illustrator 19.0.0, SVG Export Plug-In . SVG Version: 6.00 Build 0)  -->
<svg version="1.1" id="Capa_1" xmlns="http://www.w3.org/2000/svg" xmlns:xlink="http://www.w3.org/1999/xlink" x="0px" y="0px"
	 viewBox="0 0 512 512" style="enable-background:new 0 0 512 512;" xml:space="preserve">
<path style="fill:#00459F;" d="M429.793,219.547v-29.97h-33.196v-47.941h-29.97v47.941h-32.967v-47.941h-29.97v47.941h-32.967
	v-47.941h-29.97v47.941h-32.967v-47.941h-29.97v47.941h-32.967v-47.941h-29.97v47.941H68.67v29.97h46.213v32.967H68.67v29.97h46.213
	v32.967H68.67v29.97h46.213v32.967H68.67v29.97h361.123v-29.97h-33.196v-32.967h33.196v-29.97h-33.196v-32.967h33.196v-29.97
	h-33.196v-32.967L429.793,219.547L429.793,219.547z M177.819,378.386h-32.967v-32.967h32.967V378.386z M177.819,315.45h-32.967
	v-32.967h32.967V315.45z M177.819,252.514h-32.967v-32.967h32.967V252.514z M240.755,378.386h-32.967v-32.967h32.967V378.386z
	 M240.755,315.45h-32.967v-32.967h32.967V315.45z M240.755,252.514h-32.967v-32.967h32.967V252.514z M303.692,378.386h-32.967
	v-32.967h32.967V378.386z M303.692,315.45h-32.967v-32.967h32.967V315.45z M303.692,252.514h-32.967v-32.967h32.967V252.514z
	 M366.628,378.386h-32.967v-32.967h32.967V378.386z M366.628,315.45h-32.967v-32.967h32.967V315.45z M366.628,252.514h-32.967
	v-32.967h32.967V252.514z"/>
<path style="fill:#002D6B;" d="M429.793,219.547v-29.97h-33.196v-47.941h-29.97v47.941h-32.967v-47.941h-29.97v47.941h-32.967
	v-47.941H256v266.719h173.793v-29.97h-33.196v-32.967h33.196v-29.97h-33.196v-32.967h33.196v-29.97h-33.196v-32.967L429.793,219.547
	L429.793,219.547z M303.692,378.386h-32.967v-32.967h32.967V378.386z M303.692,315.45h-32.967v-32.967h32.967V315.45z
	 M303.692,252.514h-32.967v-32.967h32.967V252.514z M366.628,378.386h-32.967v-32.967h32.967V378.386z M366.628,315.45h-32.967
	v-32.967h32.967V315.45z M366.628,252.514h-32.967v-32.967h32.967V252.514z"/>
<path style="fill:#AEADB3;" d="M512,158.629v278.687h-84.175V165.272c0-4.775-3.876-8.651-8.641-8.651H92.296
	c-4.765,0-8.641,3.876-8.641,8.651v272.044H0V158.629c0-46.283,37.662-83.945,83.955-83.945h344.101
	C474.338,74.684,512,112.346,512,158.629z"/>
<path style="fill:#8B8992;" d="M512,158.629v278.687h-84.175V165.272c0-4.775-3.876-8.651-8.641-8.651H256V74.684h172.055
	C474.338,74.684,512,112.346,512,158.629z"/>
<g>
</g>
<g>
</g>
<g>
</g>
<g>
</g>
<g>
</g>
<g>
</g>
<g>
</g>
<g>
</g>
<g>
</g>
<g>
</g>
<g>
</g>
<g>
</g>
<g>
</g>
<g>
</g>
<g>
</g>
</svg>
