<?xml version="1.0" encoding="iso-8859-1"?>
<!-- Generator: Adobe Illustrator 19.0.0, SVG Export Plug-In . SVG Version: 6.00 Build 0)  -->
<svg version="1.1" id="Capa_1" xmlns="http://www.w3.org/2000/svg" xmlns:xlink="http://www.w3.org/1999/xlink" x="0px" y="0px"
	 viewBox="0 0 512 512" style="enable-background:new 0 0 512 512;" xml:space="preserve">
<polygon style="fill:#FFAA20;" points="336.312,0 293.795,100.124 251.278,0 218.666,0 268.809,118.081 293.795,107.47 
	318.781,118.081 368.923,0 "/>
<path style="fill:#AEADB3;" d="M296.022,175.435c-22.505,0-40.814-18.309-40.814-40.814c0-22.504,18.308-40.813,40.814-40.813
	c22.505,0,40.813,18.309,40.813,40.813C336.835,157.126,318.527,175.435,296.022,175.435z M296.022,123.825
	c-5.953,0-10.796,4.844-10.796,10.796c0,5.953,4.844,10.797,10.796,10.797c5.952,0,10.796-4.844,10.796-10.797
	C306.818,128.669,301.975,123.825,296.022,123.825z"/>
<polygon style="fill:#00459F;" points="360.073,243.118 360.073,512 251.062,512 251.062,338.932 336.08,243.118 "/>
<path style="fill:#00ACEA;" d="M251.577,351.613h-0.52c-59.586-0.28-107.98-48.843-107.98-108.491s48.394-108.22,107.98-108.499
	h0.52c59.825,0,108.499,48.675,108.499,108.499S311.403,351.613,251.577,351.613z"/>
<path style="fill:#D1FEFB;" d="M251.577,303.147c-0.176,0-0.352,0-0.52-0.008c-32.861-0.272-59.506-27.101-59.506-60.017
	c0-32.925,26.645-59.746,59.506-60.017c0.168-0.008,0.344-0.008,0.52-0.008c33.1,0,60.025,26.925,60.025,60.025
	C311.603,276.213,284.678,303.147,251.577,303.147z"/>
<path style="fill:#0082D1;" d="M251.058,351.613c-59.586-0.28-107.98-48.843-107.98-108.491s48.394-108.22,107.98-108.499
	L251.058,351.613L251.058,351.613z"/>
<path style="fill:#77FEF6;" d="M251.058,303.139c-32.861-0.272-59.506-27.101-59.506-60.017c0-32.925,26.645-59.746,59.506-60.017
	V303.139z"/>
<rect x="251.063" y="445.352" style="fill:#FFF4CB;" width="109.012" height="30.017"/>
<g>
</g>
<g>
</g>
<g>
</g>
<g>
</g>
<g>
</g>
<g>
</g>
<g>
</g>
<g>
</g>
<g>
</g>
<g>
</g>
<g>
</g>
<g>
</g>
<g>
</g>
<g>
</g>
<g>
</g>
</svg>
