<?xml version="1.0" encoding="iso-8859-1"?>
<!-- Generator: Adobe Illustrator 19.0.0, SVG Export Plug-In . SVG Version: 6.00 Build 0)  -->
<svg version="1.1" id="Capa_1" xmlns="http://www.w3.org/2000/svg" xmlns:xlink="http://www.w3.org/1999/xlink" x="0px" y="0px"
	 viewBox="0 0 511.999 511.999" style="enable-background:new 0 0 511.999 511.999;" xml:space="preserve">
<path style="fill:#FF8900;" d="M508.289,29.631L508.862,0l-24.193,17.117c-11.699,8.275-26.105,10.944-41.358,13.768
	c-14.721,2.726-29.942,5.545-43.773,13.651c-7.25,4.244-14.019,9.708-19.842,15.136c-0.56-6.762-1.124-14.488-1.386-18.235
	l-1.367-19.566l-18.513,6.471c-43.391,15.168-69.044,49.56-82.299,73.589l-26.55-38.572l-12.722,13.384
	c-42.961,45.196-45.217,92.379-39.545,124.001l14.74-2.644v0.001l113.36,110.832l0,0l-1.96,14.846
	c6.406,0.846,13.408,1.382,20.867,1.382c30.911,0,69.642-9.215,106.054-43.822l15.009-14.265l-43.179-23.158
	c20.566-12.784,48.354-34.535,64.262-65.719l6.948-13.621l-37.742-18.275C477.234,127.172,507.126,89.891,508.289,29.631z"/>
<path style="fill:#006EF5;" d="M262.571,187.139l63.051,63.051c16.347,16.347,17.41,44.926,2.997,80.471
	c-13.267,32.718-38.315,68.482-70.542,100.71s-67.992,57.274-100.71,70.542c-35.545,14.413-64.124,13.35-80.471-2.997
	l-63.051-63.051L262.571,187.139z"/>
<path style="fill:#004EB2;" d="M262.571,187.139l63.051,63.051c16.347,16.347,17.41,44.926,2.997,80.471
	c-13.267,32.718-38.315,68.482-70.542,100.71L138.208,311.502L262.571,187.139z"/>
<path style="fill:#00459F;" d="M262.571,187.139c29.055,29.055-3.07,108.292-71.752,176.974S42.9,464.92,13.845,435.865
	c-29.06-29.06,3.065-108.297,71.747-176.979C154.273,190.205,233.511,158.079,262.571,187.139z"/>
<path style="fill:#002D6B;" d="M262.571,187.139c29.055,29.055-3.07,108.292-71.752,176.974L85.592,258.886
	C154.273,190.205,233.511,158.079,262.571,187.139z"/>
<g>
</g>
<g>
</g>
<g>
</g>
<g>
</g>
<g>
</g>
<g>
</g>
<g>
</g>
<g>
</g>
<g>
</g>
<g>
</g>
<g>
</g>
<g>
</g>
<g>
</g>
<g>
</g>
<g>
</g>
</svg>
