<?xml version="1.0" encoding="iso-8859-1"?>
<!-- Generator: Adobe Illustrator 19.0.0, SVG Export Plug-In . SVG Version: 6.00 Build 0)  -->
<svg version="1.1" id="Capa_1" xmlns="http://www.w3.org/2000/svg" xmlns:xlink="http://www.w3.org/1999/xlink" x="0px" y="0px"
	 viewBox="0 0 512 512" style="enable-background:new 0 0 512 512;" xml:space="preserve">
<path style="fill:#AEADB3;" d="M512,261.101l-1.338,16.202c-5.271,63.688-34.09,122.754-81.157,166.308
	C382.158,487.423,320.537,511.551,256,511.551S129.842,487.423,82.495,443.61C35.428,400.057,6.608,340.991,1.338,277.303L0,261.101
	h29.867c5.111,0,9.264-4.163,9.264-9.274c0-5.111-4.153-9.264-9.264-9.264H0.26l1.967-16.721C17.35,97.339,126.448,0.449,256,0.449
	s238.651,96.89,253.774,225.394l1.967,16.721h-29.608c-5.111,0-9.264,4.153-9.264,9.264s4.153,9.274,9.264,9.274H512z"/>
<path style="fill:#8B8992;" d="M512,261.101l-1.338,16.202c-5.271,63.688-34.09,122.754-81.157,166.308
	C382.158,487.423,320.537,511.551,256,511.551V0.449c129.552,0,238.651,96.89,253.774,225.394l1.967,16.721h-29.608
	c-5.111,0-9.264,4.153-9.264,9.264c0,5.111,4.153,9.274,9.264,9.274H512z"/>
<g>
	<path style="fill:#FF3B62;" d="M256,49.024c-26.424,0-47.916,21.492-47.916,47.916c0,26.414,21.492,47.916,47.916,47.916
		s47.916-21.502,47.916-47.916C303.916,70.516,282.424,49.024,256,49.024z M256,114.908c-9.913,0-17.968-8.066-17.968-17.968
		c0-9.913,8.056-17.968,17.968-17.968s17.968,8.056,17.968,17.968C273.968,106.842,265.913,114.908,256,114.908z"/>
	<path style="fill:#FF3B62;" d="M256,155.057c-26.424,0-47.916,21.492-47.916,47.916s21.492,47.916,47.916,47.916
		s47.916-21.492,47.916-47.916S282.424,155.057,256,155.057z M256,220.942c-9.913,0-17.968-8.056-17.968-17.968
		c0-9.903,8.056-17.968,17.968-17.968s17.968,8.066,17.968,17.968C273.968,212.886,265.913,220.942,256,220.942z"/>
	<path style="fill:#FF3B62;" d="M256,261.101c-26.424,0-47.916,21.492-47.916,47.916c0,26.424,21.492,47.916,47.916,47.916
		s47.916-21.492,47.916-47.916C303.916,282.593,282.424,261.101,256,261.101z M256,326.985c-9.913,0-17.968-8.066-17.968-17.968
		c0-9.913,8.056-17.968,17.968-17.968s17.968,8.056,17.968,17.968C273.968,318.919,265.913,326.985,256,326.985z"/>
	<path style="fill:#FF3B62;" d="M256,367.135c-26.424,0-47.916,21.502-47.916,47.916c0,26.424,21.492,47.916,47.916,47.916
		s47.916-21.492,47.916-47.916C303.916,388.637,282.424,367.135,256,367.135z M256,433.019c-9.913,0-17.968-8.056-17.968-17.968
		c0-9.903,8.056-17.968,17.968-17.968s17.968,8.066,17.968,17.968C273.968,424.963,265.913,433.019,256,433.019z"/>
	<path style="fill:#FF3B62;" d="M370.798,102.041c-26.424,0-47.916,21.492-47.916,47.916s21.492,47.916,47.916,47.916
		s47.916-21.492,47.916-47.916S397.222,102.041,370.798,102.041z M370.798,167.925c-9.913,0-17.968-8.056-17.968-17.968
		s8.056-17.968,17.968-17.968s17.968,8.056,17.968,17.968S380.711,167.925,370.798,167.925z"/>
	<path style="fill:#FF3B62;" d="M370.798,208.074c-26.424,0-47.916,21.502-47.916,47.926c0,26.414,21.492,47.916,47.916,47.916
		s47.916-21.502,47.916-47.916C418.714,229.576,397.222,208.074,370.798,208.074z M370.798,273.968
		c-9.913,0-17.968-8.066-17.968-17.968c0-9.913,8.056-17.978,17.968-17.978s17.968,8.066,17.968,17.978
		C388.767,265.903,380.711,273.968,370.798,273.968z"/>
	<path style="fill:#FF3B62;" d="M370.798,314.118c-26.424,0-47.916,21.492-47.916,47.916s21.492,47.916,47.916,47.916
		s47.916-21.492,47.916-47.916S397.222,314.118,370.798,314.118z M370.798,380.002c-9.913,0-17.968-8.056-17.968-17.968
		s8.056-17.968,17.968-17.968s17.968,8.056,17.968,17.968S380.711,380.002,370.798,380.002z"/>
	<path style="fill:#FF3B62;" d="M141.202,102.041c-26.424,0-47.916,21.492-47.916,47.916s21.492,47.916,47.916,47.916
		s47.916-21.492,47.916-47.916S167.625,102.041,141.202,102.041z M141.202,167.925c-9.913,0-17.968-8.056-17.968-17.968
		s8.056-17.968,17.968-17.968s17.968,8.056,17.968,17.968S151.114,167.925,141.202,167.925z"/>
	<path style="fill:#FF3B62;" d="M141.202,208.074c-26.424,0-47.916,21.502-47.916,47.926c0,26.414,21.492,47.916,47.916,47.916
		s47.916-21.502,47.916-47.916C189.118,229.576,167.625,208.074,141.202,208.074z M141.202,273.968
		c-9.913,0-17.968-8.066-17.968-17.968c0-9.913,8.056-17.978,17.968-17.978S159.17,246.087,159.17,256
		C159.17,265.903,151.114,273.968,141.202,273.968z"/>
	<path style="fill:#FF3B62;" d="M141.202,314.118c-26.424,0-47.916,21.492-47.916,47.916s21.492,47.916,47.916,47.916
		s47.916-21.492,47.916-47.916S167.625,314.118,141.202,314.118z M141.202,380.002c-9.913,0-17.968-8.056-17.968-17.968
		s8.056-17.968,17.968-17.968s17.968,8.056,17.968,17.968S151.114,380.002,141.202,380.002z"/>
</g>
<g>
	<path style="fill:#D80322;" d="M303.916,415.05c0,26.424-21.492,47.916-47.916,47.916v-29.947c9.913,0,17.968-8.056,17.968-17.968
		c0-9.903-8.056-17.968-17.968-17.968v-29.947C282.424,367.135,303.916,388.637,303.916,415.05z"/>
	<path style="fill:#D80322;" d="M303.916,309.017c0,26.424-21.492,47.916-47.916,47.916v-29.947c9.913,0,17.968-8.066,17.968-17.968
		c0-9.913-8.056-17.968-17.968-17.968v-29.947C282.424,261.101,303.916,282.593,303.916,309.017z"/>
	<path style="fill:#D80322;" d="M303.916,202.973c0,26.424-21.492,47.916-47.916,47.916v-29.947c9.913,0,17.968-8.056,17.968-17.968
		c0-9.903-8.056-17.968-17.968-17.968v-29.947C282.424,155.057,303.916,176.55,303.916,202.973z"/>
	<path style="fill:#D80322;" d="M303.916,96.94c0,26.414-21.492,47.916-47.916,47.916v-29.947c9.913,0,17.968-8.066,17.968-17.968
		c0-9.913-8.056-17.968-17.968-17.968V49.024C282.424,49.024,303.916,70.516,303.916,96.94z"/>
	<path style="fill:#D80322;" d="M370.798,314.118c-26.424,0-47.916,21.492-47.916,47.916s21.492,47.916,47.916,47.916
		s47.916-21.492,47.916-47.916S397.222,314.118,370.798,314.118z M370.798,380.002c-9.913,0-17.968-8.056-17.968-17.968
		s8.056-17.968,17.968-17.968s17.968,8.056,17.968,17.968S380.711,380.002,370.798,380.002z"/>
	<path style="fill:#D80322;" d="M370.798,208.074c-26.424,0-47.916,21.502-47.916,47.926c0,26.414,21.492,47.916,47.916,47.916
		s47.916-21.502,47.916-47.916C418.714,229.576,397.222,208.074,370.798,208.074z M370.798,273.968
		c-9.913,0-17.968-8.066-17.968-17.968c0-9.913,8.056-17.978,17.968-17.978s17.968,8.066,17.968,17.978
		C388.767,265.903,380.711,273.968,370.798,273.968z"/>
	<path style="fill:#D80322;" d="M370.798,102.041c-26.424,0-47.916,21.492-47.916,47.916s21.492,47.916,47.916,47.916
		s47.916-21.492,47.916-47.916S397.222,102.041,370.798,102.041z M370.798,167.925c-9.913,0-17.968-8.056-17.968-17.968
		s8.056-17.968,17.968-17.968s17.968,8.056,17.968,17.968S380.711,167.925,370.798,167.925z"/>
</g>
<g>
</g>
<g>
</g>
<g>
</g>
<g>
</g>
<g>
</g>
<g>
</g>
<g>
</g>
<g>
</g>
<g>
</g>
<g>
</g>
<g>
</g>
<g>
</g>
<g>
</g>
<g>
</g>
<g>
</g>
</svg>
