<?xml version="1.0" encoding="iso-8859-1"?>
<!-- Generator: Adobe Illustrator 19.0.0, SVG Export Plug-In . SVG Version: 6.00 Build 0)  -->
<svg version="1.1" id="Capa_1" xmlns="http://www.w3.org/2000/svg" xmlns:xlink="http://www.w3.org/1999/xlink" x="0px" y="0px"
	 viewBox="0 0 512 512" style="enable-background:new 0 0 512 512;" xml:space="preserve">
<path style="fill:#FFC473;" d="M476.835,351.55c0.15,0.19,0.29,0.38,0.43,0.57c6.66,8.83,10.63,19.8,10.63,31.69
	c0,17.85-8.92,33.66-22.53,43.2c6.92,8.92,11.04,20.12,11.04,32.26c0,29.07-23.65,52.73-52.73,52.73h-168.5
	c-27.66,0-54.81-4.93-80.71-14.64l-83.76-31.41V248.82l4.11-4.33c63.74-67.34,132.96-143.87,143.02-160.22V21.91
	c0-12.08,9.83-21.91,21.91-21.91c51.21,0,92.86,41.65,92.86,92.85v27.91l-17.2,59.4h122.73c29.08,0,52.73,23.65,52.73,52.73
	c0,17.85-8.93,33.66-22.54,43.2c6.92,8.92,11.06,20.11,11.06,32.26C499.385,326.2,490.455,342,476.835,351.55z"/>
<path style="fill:#FFAA20;" d="M465.365,427.01c6.92,8.92,11.04,20.12,11.04,32.26c0,29.07-23.65,52.73-52.73,52.73h-168.5
	c-27.66,0-54.81-4.93-80.71-14.64l-83.76-31.41V352.12h386.56c6.66,8.83,10.63,19.8,10.63,31.69
	C487.895,401.66,478.975,417.47,465.365,427.01z"/>
<rect x="1.135" y="232.54" style="fill:#00459F;" width="104.57" height="239.17"/>
<rect x="1.135" y="352.12" style="fill:#002D6B;" width="104.57" height="119.59"/>
<g>
</g>
<g>
</g>
<g>
</g>
<g>
</g>
<g>
</g>
<g>
</g>
<g>
</g>
<g>
</g>
<g>
</g>
<g>
</g>
<g>
</g>
<g>
</g>
<g>
</g>
<g>
</g>
<g>
</g>
</svg>
