<?xml version="1.0" encoding="iso-8859-1"?>
<!-- Generator: Adobe Illustrator 19.0.0, SVG Export Plug-In . SVG Version: 6.00 Build 0)  -->
<svg version="1.1" id="Capa_1" xmlns="http://www.w3.org/2000/svg" xmlns:xlink="http://www.w3.org/1999/xlink" x="0px" y="0px"
	 viewBox="0 0 512 512" style="enable-background:new 0 0 512 512;" xml:space="preserve">
<polygon style="fill:#FF8900;" points="351.074,64.253 0,64.253 0,290.047 64.009,290.047 64.009,375.267 183.435,290.047 
	351.074,290.047 "/>
<polygon style="fill:#FFC473;" points="160.926,136.733 512,136.733 512,362.528 447.991,362.528 447.991,447.747 328.565,362.528 
	160.926,362.528 "/>
<path style="fill:#006EF5;" d="M441.607,224.128v52.293c0,13.558-11.41,25.85-32.128,34.613c-19.07,8.066-44.287,12.51-71.016,12.51
	s-51.947-4.444-71.016-12.51c-20.717-8.763-32.128-21.056-32.128-34.613v-52.293L441.607,224.128L441.607,224.128z"/>
<path style="fill:#004EB2;" d="M441.607,224.128v52.293c0,13.558-11.41,25.85-32.128,34.613c-19.07,8.066-44.287,12.51-71.016,12.51
	v-99.417L441.607,224.128L441.607,224.128z"/>
<path style="fill:#00459F;" d="M441.607,224.128c0,24.098-46.181,43.635-103.144,43.635s-103.144-19.537-103.144-43.635
	c0-24.102,46.181-43.639,103.144-43.639S441.607,200.026,441.607,224.128z"/>
<path style="fill:#002D6B;" d="M441.607,224.128c0,24.098-46.181,43.635-103.144,43.635V180.49
	C395.426,180.49,441.607,200.026,441.607,224.128z"/>
<g>
</g>
<g>
</g>
<g>
</g>
<g>
</g>
<g>
</g>
<g>
</g>
<g>
</g>
<g>
</g>
<g>
</g>
<g>
</g>
<g>
</g>
<g>
</g>
<g>
</g>
<g>
</g>
<g>
</g>
</svg>
