<?xml version="1.0" encoding="iso-8859-1"?>
<!-- Generator: Adobe Illustrator 19.0.0, SVG Export Plug-In . SVG Version: 6.00 Build 0)  -->
<svg version="1.1" id="Capa_1" xmlns="http://www.w3.org/2000/svg" xmlns:xlink="http://www.w3.org/1999/xlink" x="0px" y="0px"
	 viewBox="0 0 512 512" style="enable-background:new 0 0 512 512;" xml:space="preserve">
<polygon style="fill:#00459F;" points="416.14,234.1 416.14,264.1 370,264.1 370,417.64 300.8,417.64 300.8,387.64 340,387.64 
	340,124.36 300.8,124.36 300.8,94.36 370,94.36 370,234.1 "/>
<polygon style="fill:#002D6B;" points="171.5,324.896 103.651,324.896 103.651,354.896 141.5,354.896 141.5,450.39 103.651,450.39 
	103.651,480.39 171.5,480.39 171.5,417.642 212.144,417.642 212.144,387.642 171.5,387.642 "/>
<polygon style="fill:#00459F;" points="171.5,94.357 171.5,31.61 103.651,31.61 103.651,61.61 141.5,61.61 141.5,157.105 
	103.651,157.105 103.651,187.105 171.5,187.105 171.5,124.357 212.144,124.357 212.144,94.357 "/>
<g>
	<rect style="fill:#FF3B62;" width="118.65" height="93.22"/>
	<rect y="125.49" style="fill:#FF3B62;" width="118.65" height="93.22"/>
</g>
<g>
	<rect y="293.29" style="fill:#D80322;" width="118.65" height="93.22"/>
	<rect y="418.78" style="fill:#D80322;" width="118.65" height="93.22"/>
</g>
<polygon style="fill:#002D6B;" points="416.14,249.1 416.14,264.1 370,264.1 370,417.64 300.8,417.64 300.8,387.64 340,387.64 
	340,249.1 "/>
<rect x="197.14" y="62.747" style="fill:#FF3B62;" width="118.65" height="93.22"/>
<rect x="197.14" y="356.03" style="fill:#D80322;" width="118.65" height="93.22"/>
<rect x="393.35" y="202.49" style="fill:#FF3B62;" width="118.65" height="93.22"/>
<rect x="393.35" y="249.1" style="fill:#D80322;" width="118.65" height="46.61"/>
<g>
</g>
<g>
</g>
<g>
</g>
<g>
</g>
<g>
</g>
<g>
</g>
<g>
</g>
<g>
</g>
<g>
</g>
<g>
</g>
<g>
</g>
<g>
</g>
<g>
</g>
<g>
</g>
<g>
</g>
</svg>
