<?xml version="1.0" encoding="iso-8859-1"?>
<!-- Generator: Adobe Illustrator 19.0.0, SVG Export Plug-In . SVG Version: 6.00 Build 0)  -->
<svg version="1.1" id="Capa_1" xmlns="http://www.w3.org/2000/svg" xmlns:xlink="http://www.w3.org/1999/xlink" x="0px" y="0px"
	 viewBox="0 0 512 512" style="enable-background:new 0 0 512 512;" xml:space="preserve">
<g>
	<path style="fill:#004EB2;" d="M406.153,113.92c-0.159,0-0.324,0.001-0.484,0.003c-33.558,0.277-60.622,29.282-60.33,64.655
		c0.29,35.205,27.565,63.652,60.906,63.652c0.16,0,0.324-0.001,0.484-0.003c16.455-0.136,31.81-7.068,43.238-19.521
		c11.162-12.164,17.232-28.192,17.093-45.134C466.769,142.367,439.495,113.92,406.153,113.92z"/>
	<path style="fill:#004EB2;" d="M421.701,249.73h-31.003c-49.791,0-90.299,40.508-90.299,90.299v38.229H512v-38.229
		C512,290.237,471.492,249.73,421.701,249.73z"/>
</g>
<g>
	<path style="fill:#006EF5;" d="M105.754,113.92c-0.159,0-0.324,0.001-0.484,0.003c-33.558,0.277-60.622,29.282-60.33,64.655
		c0.291,35.205,27.565,63.652,60.906,63.652c0.16,0,0.324-0.001,0.484-0.003c16.454-0.136,31.81-7.068,43.238-19.521
		c11.163-12.164,17.233-28.192,17.093-45.134C166.37,142.367,139.096,113.92,105.754,113.92z"/>
	<path style="fill:#006EF5;" d="M121.302,249.73H90.299C40.508,249.73,0,290.237,0,340.029v38.229h211.6v-38.229
		C211.6,290.237,171.092,249.73,121.302,249.73z"/>
</g>
<g>
	<path style="fill:#00ACEA;" d="M380.97,365.12v42.93H132.54v-42.93c0-58.22,47.36-105.57,105.57-105.57h37.29
		C333.62,259.55,380.97,306.9,380.97,365.12z"/>
	<path style="fill:#00ACEA;" d="M326.92,178.08c0,40.87-31.47,74.12-70.16,74.12c-0.25,0-0.51,0-0.76-0.01
		c-38.34-0.43-69.4-33.51-69.4-74.11c0-40.61,31.06-73.69,69.4-74.12c0.25-0.01,0.51-0.01,0.76-0.01
		C295.45,103.95,326.92,137.2,326.92,178.08z"/>
</g>
<g>
	<path style="fill:#0082D1;" d="M256.76,252.2c-0.25,0-0.51,0-0.76-0.01V103.96c0.25-0.01,0.51-0.01,0.76-0.01
		c38.69,0,70.16,33.25,70.16,74.13C326.92,218.95,295.45,252.2,256.76,252.2z"/>
	<path style="fill:#0082D1;" d="M380.97,365.12v42.93H256v-148.5h19.4C333.62,259.55,380.97,306.9,380.97,365.12z"/>
</g>
<g>
</g>
<g>
</g>
<g>
</g>
<g>
</g>
<g>
</g>
<g>
</g>
<g>
</g>
<g>
</g>
<g>
</g>
<g>
</g>
<g>
</g>
<g>
</g>
<g>
</g>
<g>
</g>
<g>
</g>
</svg>
