<?xml version="1.0" encoding="iso-8859-1"?>
<!-- Generator: Adobe Illustrator 19.0.0, SVG Export Plug-In . SVG Version: 6.00 Build 0)  -->
<svg version="1.1" id="Capa_1" xmlns="http://www.w3.org/2000/svg" xmlns:xlink="http://www.w3.org/1999/xlink" x="0px" y="0px"
	 viewBox="0 0 512 512" style="enable-background:new 0 0 512 512;" xml:space="preserve">
<polygon style="fill:#57555C;" points="338.162,363.847 153.776,41.922 127.744,56.832 364.435,470.078 512,470.078 512,363.847 "/>
<polygon style="fill:#8B8992;" points="358.224,41.922 173.838,363.847 0,363.847 0,470.078 147.565,470.078 384.257,56.832 "/>
<path style="fill:#006EF5;" d="M375.002,218.256v60.333c0,15.642-13.165,29.825-37.067,39.935
	c-22.001,9.306-51.096,14.434-81.935,14.434c-30.838,0-59.933-5.127-81.935-14.434c-23.903-10.111-37.067-24.293-37.067-39.935
	v-60.333L375.002,218.256L375.002,218.256z"/>
<path style="fill:#004EB2;" d="M375.002,218.256v60.333c0,15.642-13.165,29.825-37.067,39.935
	c-22.001,9.306-51.096,14.434-81.935,14.434V218.256H375.002z"/>
<path style="fill:#00459F;" d="M375.002,218.256c0,27.803-53.281,50.343-119.002,50.343s-119.002-22.541-119.002-50.343
	c0-27.807,53.281-50.348,119.002-50.348S375.002,190.449,375.002,218.256z"/>
<path style="fill:#002D6B;" d="M375.002,218.256c0,27.803-53.281,50.343-119.002,50.343V167.908
	C321.721,167.908,375.002,190.449,375.002,218.256z"/>
<g>
</g>
<g>
</g>
<g>
</g>
<g>
</g>
<g>
</g>
<g>
</g>
<g>
</g>
<g>
</g>
<g>
</g>
<g>
</g>
<g>
</g>
<g>
</g>
<g>
</g>
<g>
</g>
<g>
</g>
</svg>
