<?xml version="1.0" encoding="iso-8859-1"?>
<!-- Generator: Adobe Illustrator 19.0.0, SVG Export Plug-In . SVG Version: 6.00 Build 0)  -->
<svg version="1.1" id="Capa_1" xmlns="http://www.w3.org/2000/svg" xmlns:xlink="http://www.w3.org/1999/xlink" x="0px" y="0px"
	 viewBox="0 0 512 512" style="enable-background:new 0 0 512 512;" xml:space="preserve">
<path style="fill:#D1FEFB;" d="M512,271h-50.63l22.6,22.5l-21.17,21.26L418.85,271H313.08c-1.37,5.23-3.46,10.18-6.13,14.74
	l74.81,74.81l62.02,0.13l-0.06,30l-31.9-0.07l35.81,35.8l-21.22,21.22l-35.8-35.81l0.07,31.9l-30,0.06l-0.13-62.02l-74.81-74.81
	c-4.56,2.67-9.51,4.76-14.74,6.13v105.77l43.76,43.95l-21.26,21.17l-22.5-22.6V512h-30v-50.63l-22.5,22.6l-21.26-21.17L241,418.85
	V313.08c-5.23-1.37-10.18-3.46-14.74-6.13l-74.81,74.81l-0.13,62.02l-30-0.06l0.07-31.9l-35.8,35.81l-21.22-21.22l35.81-35.8
	l-31.9,0.07l-0.06-30l62.02-0.13l74.81-74.81c-2.67-4.56-4.76-9.51-6.13-14.74H93.15L49.2,314.76L28.03,293.5l22.6-22.5H0v-30h50.63
	l-22.6-22.51l21.17-21.25L93.15,241h105.77c1.37-5.23,3.46-10.18,6.13-14.74l-74.81-74.81l-62.02-0.13l0.06-30l31.9,0.07
	l-35.81-35.8l21.22-21.22l35.8,35.81l-0.07-31.9l30-0.06l0.13,62.02l74.81,74.81c4.56-2.67,9.51-4.76,14.74-6.13V93.15L197.24,49.2
	l21.26-21.17l22.5,22.6V0h30v50.63l22.5-22.6l21.26,21.17L271,93.15v105.77c5.23,1.37,10.18,3.46,14.74,6.13l74.81-74.81l0.13-62.02
	l30,0.06l-0.07,31.9l35.8-35.81l21.22,21.22l-35.81,35.8l31.9-0.07l0.06,30l-62.02,0.13l-74.81,74.81
	c2.67,4.56,4.76,9.51,6.13,14.74h105.77l43.95-43.76l21.17,21.25L461.37,241H512V271z"/>
<path style="fill:#77FEF6;" d="M512,271h-50.63l22.6,22.5l-21.17,21.26L418.85,271H313.08c-1.37,5.23-3.46,10.18-6.13,14.74
	l74.81,74.81l62.02,0.13l-0.06,30l-31.9-0.07l35.81,35.8l-21.22,21.22l-35.8-35.81l0.07,31.9l-30,0.06l-0.13-62.02l-74.81-74.81
	c-4.56,2.67-9.51,4.76-14.74,6.13v105.77l43.76,43.95l-21.26,21.17l-22.5-22.6V512h-16.96V0H271v50.63l22.5-22.6l21.26,21.17
	L271,93.15v105.77c5.23,1.37,10.18,3.46,14.74,6.13l74.81-74.81l0.13-62.02l30,0.06l-0.07,31.9l35.8-35.81l21.22,21.22l-35.81,35.8
	l31.9-0.07l0.06,30l-62.02,0.13l-74.81,74.81c2.67,4.56,4.76,9.51,6.13,14.74h105.77l43.95-43.76l21.17,21.25L461.37,241H512V271z"
	/>
<g>
</g>
<g>
</g>
<g>
</g>
<g>
</g>
<g>
</g>
<g>
</g>
<g>
</g>
<g>
</g>
<g>
</g>
<g>
</g>
<g>
</g>
<g>
</g>
<g>
</g>
<g>
</g>
<g>
</g>
</svg>
