<?xml version="1.0" encoding="iso-8859-1"?>
<!-- Generator: Adobe Illustrator 19.0.0, SVG Export Plug-In . SVG Version: 6.00 Build 0)  -->
<svg version="1.1" id="Capa_1" xmlns="http://www.w3.org/2000/svg" xmlns:xlink="http://www.w3.org/1999/xlink" x="0px" y="0px"
	 viewBox="0 0 512 512" style="enable-background:new 0 0 512 512;" xml:space="preserve">
<g>
	<path style="fill:#FFAA20;" d="M368.465,215.244l0.434-0.004C368.762,215.011,368.617,215.023,368.465,215.244z"/>
	<path style="fill:#FFAA20;" d="M368.314,215.523c0.051-0.118,0.101-0.207,0.151-0.279l-0.151,0.001V48.646
		C368.314,21.822,346.491,0,319.668,0h-0.493c-26.824,0-48.647,21.822-48.647,48.646v39.14c-9.876-4.319-20.838-5.17-31.388-2.339
		l-0.479,0.128c-15.552,4.175-27.239,15.622-32.413,29.698c-9.713-4.086-20.437-4.847-30.766-2.075l-0.479,0.128
		c-23.126,6.207-37.726,28.485-35.024,51.597c-6.028-0.795-12.303-0.449-18.529,1.222l-0.479,0.128
		c-23.052,6.187-37.638,28.342-35.055,51.372h-0.002c0,0-4.938,153.712,41.293,235.835h159.025l68.667-68.907
		c0,0,4.713-81.354,8.929-131.34h4.486L368.314,215.523L368.314,215.523z"/>
</g>
<path style="fill:#FFC473;" d="M335.266,453.48l83.579-149.529c12.687-22.698,9.098-51.014-8.851-69.829l-60.524-63.443
	c-17.501-18.345-46.935-17.84-63.797,1.094l0,0c-15.055,16.905-14.583,42.542,1.082,58.883l53.674,55.987
	c0,0-61.241-6.903-93.197,49.598s-9.914,117.24-9.914,117.24L335.266,453.48L335.266,453.48z"/>
<polygon style="fill:#006EF5;" points="322.686,446.53 322.686,446.53 139.966,446.53 139.966,446.53 123.42,446.53 123.42,512 
	339.232,512 339.232,446.53 "/>
<polygon style="fill:#004EB2;" points="330.959,446.53 330.959,446.53 239.599,446.53 239.599,446.53 231.326,446.53 231.326,512 
	339.232,512 339.232,446.53 "/>
<g>
</g>
<g>
</g>
<g>
</g>
<g>
</g>
<g>
</g>
<g>
</g>
<g>
</g>
<g>
</g>
<g>
</g>
<g>
</g>
<g>
</g>
<g>
</g>
<g>
</g>
<g>
</g>
<g>
</g>
</svg>
